<svg version="1.1" id="emblem" xmlns="http://www.w3.org/2000/svg" xmlns:xlink="http://www.w3.org/1999/xlink" x="0px" y="0px"
	 viewBox="0 0 300 222" enable-background="new 0 0 300 222" xml:space="preserve">

<defs>
	<style type="text/css">
		#medium {
			display:block;
		}
		#leaf:hover{
			fill:#01491e;
		}
		#emblem{
			transition: all .2s ease-in-out;
			cursor:pointer;
		}
		#emblem:hover{
			transform:scale(0.7); 
			-webkit-transform-origin: 50% 50%;
		}

		@media only screen and (max-width: 180px){
			#medium{
				display:none;
			}
		}
		@media only screen and (max-width: 120px){
	 		 #copy{
	 		 	display:none;
	 		 }
	 	
	 		#thick-stoke{
	 			stroke-width:0;
	 			fill:#006633;
	 		}
	 		#leaf{
	 			fill:#FFFFFF;
	 		}
	 		#emblem:hover{
	 		transition:none;
			-webkit-animation: animCircle 2s linear infinite;
			-webkit-transform-origin: 50% 50%;
			}
	 	}

	 	@-webkit-keyframes animCircle{
	 		from{
	 			-webkit-transform:rotate(0deg);
	 		}
	 		to{
	 			-webkit-transform:rotate(360deg);
	 		}
	 	}

	 	@-webkit-keyframes clickedEmblem{

	 		0%{
	 			opacity: 1;
	 			-webkit-transform:rotate(0deg);
	 			-webkit-transform-origin: 50% 50%;
	 		}
	 		50%{
	 			opacity: 0;
	 		}
	 		100%{
	 			opacity: 1;
	 			-webkit-transform:rotate(360deg);
	 			-webkit-transform-origin: 50% 50%;
	 		}
	 	}

	 	#emblem.onclick .disappear{
	 		-webkit-animation: clickedEmblem 1s;
	 	}

	</style>
	<script type="text/javascript">

		var emblemClick = document.querySelector("#emblem");
		emblemClick.addEventListener("click",function(){
			this.classList.toggle("onclick");
		});
	</script>

</defs>



<g id="copy" class="disappear">
	<circle id="thick-stoke" class="disappear" fill="#FFFFFF" stroke="#2E2800" stroke-width="2" stroke-miterlimit="10" cx="149.5" cy="111.5" r="108.5"/>
	<path fill="#FFFFFF" stroke="#2E2800" stroke-width="2" stroke-miterlimit="10" d="M94,111.5c0-2,0.1-4,0.3-6
		c0.3-2.5,0.7-4.9,1.3-7.3c6-24.2,27.8-42.2,53.9-42.2c11.3,0,21.9,3.4,30.7,9.2"/>
	<path fill="#FFFFFF" stroke="#2E2800" stroke-width="2" stroke-miterlimit="10" d="M205,111.5c0,30.7-24.8,55.5-55.5,55.5
		c-16.4,0-31.2-7.2-41.4-18.5"/>
</g>
<g id="hoja">
	<path fill="#006633" d="M232.8,168.2c0-4.8-2.8-32.6,27.3-38c0,0,0,0,0,0c0.3,0,24.8-3.5,38.2-25.3c0.3-0.4,0.1-0.5,0,0
		c-1.9,14.2-10,77.8-63,66.2c-0.2,0-0.3,0-0.5,0c-2.7,0.3-12.7,2.2-9.3,16.8c0.5,2.1-0.7,1-2.7,0c0,0,0,0,0,0
		c-1.7-0.3-6-12.9,9.5-19.1C232.6,168.6,232.8,168.5,232.8,168.2z"/>
	<path fill="#FFFFFF" d="M236.8,167c0,0,0.8-0.4,2.3-1.1c1.5-0.7,3.5-1.7,5.9-2.9c2.4-1.3,5.2-2.8,8.2-4.5c1.5-0.8,3-1.8,4.5-2.7
		c1.5-1,3-2,4.5-3c1.5-1,3-2.1,4.3-3.2c1.4-1.1,2.7-2.2,4-3.4c1.2-1.1,2.4-2.3,3.5-3.4c0.5-0.6,1-1.1,1.5-1.7
		c0.5-0.6,0.9-1.1,1.3-1.6c0.8-1.1,1.5-2.1,2.1-3c0.6-0.9,1-1.8,1.4-2.5c0.4-0.7,0.6-1.3,0.8-1.7c0.2-0.4,0.3-0.6,0.3-0.6
		s-0.1,0.2-0.2,0.6c-0.1,0.4-0.3,1-0.6,1.8c-0.3,0.7-0.6,1.7-1.2,2.7c-0.5,1-1.1,2.1-1.9,3.3c-0.4,0.6-0.8,1.2-1.2,1.8
		c-0.5,0.6-0.9,1.2-1.4,1.8c-0.5,0.6-1.1,1.2-1.6,1.8c-0.6,0.6-1.2,1.2-1.8,1.8c-1.3,1.2-2.6,2.4-4,3.6c-1.4,1.2-2.9,2.3-4.4,3.3
		c-1.5,1.1-3.1,2.1-4.6,3c-1.6,0.9-3.1,1.8-4.6,2.6c-1.5,0.8-3,1.6-4.4,2.2c-1.4,0.7-2.8,1.3-4.1,1.8c-2.5,1.1-4.7,1.8-6.2,2.4
		C237.7,166.8,236.8,167,236.8,167z"/>
	<path fill="#FFFFFF" d="M241.2,161.6c0,0-0.5-0.6-0.9-1.6c-0.2-0.5-0.4-1.1-0.6-1.8c-0.2-0.7-0.3-1.4-0.4-2.1
		c0-0.7-0.1-1.5,0.1-2.2c0-0.3,0.1-0.7,0.2-1c0.1-0.3,0.1-0.6,0.3-0.9c0.2-0.5,0.4-0.9,0.6-1.2c0.2-0.3,0.3-0.4,0.3-0.4
		s0,0.2-0.1,0.5c0,0.2-0.1,0.3-0.1,0.6c0,0.2-0.1,0.5-0.1,0.7c0,0.3,0,0.6-0.1,0.8c0,0.3,0,0.6,0,0.9c0,0.3,0,0.7,0,1
		c0,0.3,0,0.7,0.1,1c0,0.7,0.1,1.4,0.2,2c0.1,0.7,0.2,1.3,0.3,1.8C241,160.9,241.2,161.6,241.2,161.6z"/>
	<path fill="#FFFFFF" d="M254.1,168.2c0,0-0.5,0.1-1.2,0.2c-0.4,0-0.8,0-1.3,0c-0.5,0-1-0.2-1.5-0.3c-0.5-0.2-1-0.3-1.4-0.6
		c-0.4-0.2-0.8-0.5-1.1-0.7c-0.3-0.2-0.5-0.5-0.6-0.7c-0.1-0.2-0.2-0.3-0.2-0.3s0.1,0.1,0.3,0.2c0.2,0.1,0.4,0.3,0.8,0.4
		c0.3,0.2,0.7,0.4,1.1,0.5c0.4,0.2,0.9,0.3,1.3,0.5c0.9,0.3,1.9,0.5,2.6,0.6C253.6,168.1,254.1,168.2,254.1,168.2z"/>
	<path fill="#FFFFFF" d="M263,166.2c0,0-0.6,0.2-1.6,0.2c-0.5,0-1.1,0-1.7-0.1c-0.6-0.1-1.3-0.2-1.9-0.4c-0.6-0.2-1.3-0.4-1.8-0.8
		c-0.3-0.1-0.5-0.3-0.8-0.5c-0.2-0.2-0.5-0.3-0.6-0.5c-0.4-0.3-0.7-0.6-0.8-0.9c-0.2-0.2-0.3-0.4-0.3-0.4s0.1,0.1,0.4,0.2
		c0.1,0.1,0.3,0.2,0.4,0.3c0.2,0.1,0.4,0.2,0.6,0.3c0.2,0.1,0.4,0.2,0.7,0.3c0.2,0.1,0.5,0.2,0.8,0.3c0.3,0.1,0.6,0.2,0.8,0.3
		c0.3,0.1,0.6,0.2,0.9,0.3c0.6,0.2,1.2,0.3,1.8,0.5c0.6,0.1,1.1,0.2,1.6,0.3C262.4,166.1,263,166.2,263,166.2z"/>
	<path fill="#FFFFFF" d="M271.5,162.4c0,0-0.8,0.4-2,0.6c-0.6,0.1-1.3,0.2-2.1,0.2c-0.8,0-1.6,0-2.5-0.2c-0.8-0.2-1.7-0.3-2.4-0.7
		c-0.4-0.1-0.7-0.3-1-0.5c-0.3-0.2-0.6-0.3-0.9-0.5c-0.5-0.4-0.9-0.7-1.2-1c-0.3-0.3-0.4-0.4-0.4-0.4s0.2,0.1,0.5,0.2
		c0.2,0.1,0.4,0.2,0.6,0.3c0.2,0.1,0.5,0.2,0.8,0.3c0.3,0.1,0.6,0.2,0.9,0.3c0.3,0.1,0.7,0.2,1,0.3c0.3,0.1,0.7,0.2,1.1,0.3
		c0.4,0.1,0.8,0.1,1.2,0.2c0.4,0.1,0.8,0.1,1.2,0.2c0.4,0,0.8,0.1,1.1,0.1c0.7,0.1,1.4,0.1,2.1,0.1
		C270.7,162.3,271.5,162.4,271.5,162.4z"/>
	<path fill="#FFFFFF" d="M277.4,157.2c0,0-0.8,0.4-2,0.6c-0.6,0.1-1.3,0.2-2.1,0.2c-0.8,0-1.6,0-2.5-0.1c-0.8-0.1-1.7-0.3-2.4-0.6
		c-0.4-0.1-0.7-0.3-1-0.5c-0.3-0.2-0.6-0.3-0.9-0.5c-0.5-0.3-0.9-0.7-1.2-1c-0.3-0.3-0.4-0.4-0.4-0.4s0.2,0.1,0.5,0.2
		c0.2,0.1,0.4,0.2,0.6,0.3c0.2,0.1,0.5,0.2,0.8,0.3c0.3,0.1,0.6,0.2,0.9,0.3c0.3,0.1,0.7,0.2,1,0.3c0.4,0.1,0.7,0.2,1.1,0.2
		c0.4,0.1,0.8,0.1,1.2,0.2c0.4,0.1,0.8,0.1,1.2,0.2c0.4,0,0.8,0.1,1.1,0.1c0.7,0.1,1.4,0.1,2.1,0.1
		C276.6,157.2,277.4,157.2,277.4,157.2z"/>
	<path fill="#FFFFFF" d="M282.4,151c0,0-0.7,0.5-1.9,0.9c-0.6,0.2-1.3,0.4-2.1,0.6c-0.8,0.2-1.6,0.2-2.5,0.3c-0.8,0-1.7-0.1-2.5-0.2
		c-0.4-0.1-0.8-0.2-1.1-0.3c-0.3-0.1-0.7-0.2-1-0.4c-0.6-0.3-1-0.5-1.3-0.8c-0.3-0.2-0.5-0.3-0.5-0.3s0.2,0,0.6,0.1
		c0.2,0,0.4,0.1,0.6,0.2c0.2,0,0.5,0.1,0.8,0.2c0.3,0.1,0.6,0.1,0.9,0.2c0.3,0.1,0.7,0.1,1.1,0.1c0.4,0.1,0.7,0,1.1,0.1
		c0.4,0,0.8,0,1.2,0c0.4,0,0.8,0,1.2,0c0.4,0,0.8,0,1.1-0.1c0.7-0.1,1.4-0.1,2-0.2C281.6,151.1,282.4,151,282.4,151z"/>
	<path fill="#FFFFFF" d="M246,158.1c0,0-0.5-0.9-0.9-2.2c-0.2-0.7-0.4-1.5-0.6-2.4c-0.2-0.9-0.3-1.9-0.3-2.8c0-1,0-2,0.1-2.9
		c0-0.5,0.1-0.9,0.2-1.3c0.1-0.4,0.2-0.8,0.3-1.2c0.2-0.7,0.4-1.3,0.6-1.7c0.2-0.4,0.3-0.6,0.3-0.6s0,0.2-0.1,0.7
		c0,0.2-0.1,0.5-0.1,0.7c0,0.3,0,0.6-0.1,1c0,0.3,0,0.7-0.1,1.1c0,0.4,0,0.8,0,1.3c0,0.4,0,0.9,0,1.4c0,0.5,0,0.9,0,1.4
		c0,0.5,0.1,0.9,0.1,1.4c0,0.5,0.1,0.9,0.1,1.4c0.1,0.9,0.2,1.7,0.3,2.4C245.9,157.2,246,158.1,246,158.1z"/>
	<path fill="#FFFFFF" d="M252.1,155.6c0,0-0.5-1-1-2.7c-0.2-0.8-0.5-1.8-0.6-2.8c-0.2-1-0.3-2.2-0.4-3.3c0-1.1,0-2.3,0.1-3.3
		c0-0.5,0.1-1,0.2-1.5c0.1-0.5,0.2-0.9,0.3-1.3c0.2-0.8,0.4-1.5,0.6-2c0.2-0.5,0.3-0.7,0.3-0.7s0,0.3-0.1,0.8c0,0.2-0.1,0.5-0.1,0.9
		c0,0.3,0,0.7-0.1,1.1c0,0.4,0,0.9-0.1,1.3c0,0.5,0,1,0,1.5c0,0.5,0,1,0,1.6c0,0.5,0,1.1,0.1,1.6c0,0.5,0.1,1.1,0.1,1.6
		c0,0.5,0.1,1.1,0.1,1.6c0.1,1,0.2,2,0.3,2.8C252,154.5,252.1,155.6,252.1,155.6z"/>
	<path fill="#FFFFFF" d="M258.6,151.2c0,0-0.5-1.1-0.9-3c-0.2-0.9-0.4-2-0.5-3.1c-0.1-1.2-0.1-2.4-0.1-3.6c0-0.6,0.1-1.2,0.1-1.9
		c0.1-0.6,0.1-1.2,0.3-1.8c0.1-0.6,0.2-1.1,0.4-1.6c0.1-0.5,0.3-1,0.5-1.4c0.3-0.9,0.6-1.6,0.9-2.1c0.3-0.5,0.4-0.7,0.4-0.7
		s0,0.3-0.2,0.8c-0.1,0.3-0.1,0.6-0.2,0.9c-0.1,0.4-0.1,0.8-0.2,1.2c-0.1,0.4-0.1,0.9-0.2,1.4c-0.1,0.5-0.1,1.1-0.2,1.6
		c-0.1,0.6-0.1,1.1-0.1,1.7c-0.1,0.6-0.1,1.2-0.1,1.8c0,0.6,0,1.2-0.1,1.8c0,0.6,0,1.2,0,1.7c0,1.1,0,2.2,0,3.1
		C258.6,150,258.6,151.2,258.6,151.2z"/>
	<path fill="#FFFFFF" d="M263.8,147.8c0,0-0.5-0.9-0.8-2.3c-0.2-0.7-0.3-1.5-0.3-2.4c-0.1-0.9,0-1.9,0.1-2.8c0.1-0.5,0.1-1,0.3-1.4
		c0.1-0.5,0.3-0.9,0.4-1.3c0.2-0.4,0.3-0.8,0.5-1.2c0.2-0.4,0.4-0.7,0.6-1c0.2-0.3,0.4-0.6,0.6-0.8c0.2-0.2,0.4-0.4,0.5-0.5
		c0.3-0.3,0.5-0.4,0.5-0.4s-0.1,0.2-0.3,0.6c-0.1,0.2-0.2,0.4-0.3,0.7c-0.1,0.3-0.2,0.6-0.3,0.9c-0.1,0.3-0.2,0.7-0.4,1
		c-0.1,0.4-0.2,0.8-0.3,1.2c-0.1,0.4-0.2,0.8-0.3,1.3c-0.1,0.4-0.1,0.9-0.2,1.3c-0.1,0.4-0.1,0.9-0.2,1.3c0,0.4-0.1,0.9-0.1,1.3
		c0,0.9-0.1,1.7-0.1,2.4C263.8,146.9,263.8,147.8,263.8,147.8z"/>
	<path fill="#FFFFFF" d="M270.9,142.8c0,0-0.4-0.5-0.7-1.3c-0.2-0.4-0.3-0.9-0.4-1.5c-0.1-0.6-0.2-1.2-0.1-1.8
		c0-0.6,0.1-1.2,0.3-1.8c0.1-0.3,0.2-0.5,0.3-0.8c0.1-0.2,0.2-0.5,0.3-0.6c0.2-0.4,0.5-0.7,0.7-0.9c0.2-0.2,0.3-0.3,0.3-0.3
		s-0.1,0.1-0.1,0.4c0,0.1-0.1,0.3-0.2,0.4c-0.1,0.2-0.1,0.4-0.2,0.6c-0.1,0.2-0.1,0.4-0.2,0.7c-0.1,0.2-0.1,0.5-0.2,0.7
		c-0.1,0.3-0.1,0.5-0.1,0.8c0,0.3,0,0.5-0.1,0.8c0,0.6,0,1.1,0,1.6c0,0.5,0.1,1,0.1,1.4C270.9,142.2,270.9,142.8,270.9,142.8z"/>
	<path fill="none" stroke="#FFFFFF" stroke-width="1.6435" stroke-miterlimit="10" d="M273.2,58.3"/>
</g>
<g id="hoja_1_">
	<path fill="#006633" d="M67.7,171.1c-0.1-4.8,2.2-32.7-28-37.5c0,0,0,0,0,0c-0.3,0-24.9-3-38.6-24.6c-0.3-0.4-0.1-0.5,0,0
		c2.2,14.2,11.4,77.6,64.1,65c0.2,0,0.3-0.1,0.5,0c2.7,0.2,12.7,1.9,9.6,16.6c-0.4,2.1,0.7,1,2.7,0c0,0,0,0,0,0
		c1.7-0.3,5.8-13-9.9-19C67.9,171.5,67.7,171.3,67.7,171.1z"/>
	<path fill="#FFFFFF" d="M61.6,167.3c0,0-0.8-0.4-2.3-1c-1.5-0.6-3.5-1.6-6-2.8c-2.5-1.2-5.3-2.7-8.3-4.3c-1.5-0.8-3-1.7-4.5-2.6
		c-1.5-0.9-3.1-1.9-4.6-2.9c-1.5-1-3-2-4.4-3.1c-1.4-1.1-2.8-2.2-4.1-3.3c-1.3-1.1-2.5-2.3-3.5-3.4c-0.5-0.6-1-1.1-1.5-1.7
		c-0.5-0.5-0.9-1.1-1.4-1.6c-0.8-1.1-1.6-2.1-2.2-3c-0.6-0.9-1.1-1.8-1.5-2.5c-0.4-0.7-0.6-1.3-0.8-1.7c-0.2-0.4-0.3-0.6-0.3-0.6
		s0.1,0.2,0.2,0.6c0.1,0.4,0.3,1,0.6,1.8c0.3,0.7,0.7,1.7,1.2,2.6c0.5,1,1.2,2.1,1.9,3.3c0.4,0.6,0.8,1.2,1.3,1.8
		c0.5,0.6,1,1.2,1.5,1.8c0.5,0.6,1.1,1.2,1.7,1.8c0.6,0.6,1.2,1.2,1.8,1.8c1.3,1.2,2.6,2.4,4.1,3.5c1.4,1.1,2.9,2.2,4.5,3.3
		c1.5,1,3.1,2,4.7,2.9c1.6,0.9,3.1,1.8,4.7,2.6c1.5,0.8,3,1.5,4.5,2.2c1.4,0.7,2.8,1.2,4.1,1.7c2.6,1,4.7,1.7,6.3,2.2
		C60.7,167.1,61.6,167.3,61.6,167.3z"/>
	<path fill="#FFFFFF" d="M57.1,162c0,0,0.5-0.6,0.9-1.6c0.2-0.5,0.4-1.1,0.6-1.8c0.2-0.7,0.3-1.4,0.3-2.2c0-0.7,0-1.5-0.1-2.2
		c0-0.3-0.1-0.7-0.2-1c-0.1-0.3-0.2-0.6-0.3-0.9c-0.2-0.5-0.4-0.9-0.6-1.2c-0.2-0.3-0.3-0.4-0.3-0.4s0,0.2,0.1,0.5
		c0,0.2,0.1,0.3,0.1,0.6c0,0.2,0.1,0.5,0.1,0.7c0.1,0.3,0.1,0.5,0.1,0.8c0,0.3,0,0.6,0.1,0.9c0,0.3,0,0.7,0,1c0,0.3,0,0.7,0,1
		c0,0.7-0.1,1.4-0.2,2.1c-0.1,0.7-0.2,1.3-0.3,1.8C57.3,161.2,57.1,162,57.1,162z"/>
	<path fill="#FFFFFF" d="M44.4,168.8c0,0,0.5,0.1,1.2,0.2c0.4,0,0.8,0,1.3-0.1c0.5-0.1,1-0.2,1.5-0.3c0.5-0.2,1-0.4,1.4-0.6
		c0.4-0.2,0.8-0.5,1.1-0.8c0.3-0.3,0.5-0.5,0.6-0.7c0.1-0.2,0.2-0.3,0.2-0.3s-0.1,0.1-0.3,0.2c-0.2,0.1-0.4,0.3-0.8,0.5
		c-0.3,0.2-0.7,0.4-1.1,0.5c-0.4,0.2-0.9,0.3-1.3,0.5c-0.9,0.3-1.9,0.5-2.6,0.7C44.9,168.7,44.4,168.8,44.4,168.8z"/>
	<path fill="#FFFFFF" d="M35.4,167c0,0,0.6,0.2,1.6,0.2c0.5,0,1.1,0,1.7-0.1c0.6-0.1,1.3-0.2,1.9-0.4c0.6-0.2,1.3-0.5,1.8-0.8
		c0.3-0.1,0.5-0.3,0.8-0.5c0.2-0.2,0.5-0.3,0.6-0.5c0.4-0.3,0.6-0.6,0.8-0.9c0.2-0.2,0.3-0.4,0.3-0.4s-0.1,0.1-0.4,0.2
		c-0.1,0.1-0.3,0.2-0.4,0.3c-0.2,0.1-0.4,0.2-0.6,0.3c-0.2,0.1-0.4,0.2-0.7,0.4c-0.2,0.1-0.5,0.2-0.8,0.4c-0.3,0.1-0.6,0.2-0.8,0.3
		c-0.3,0.1-0.6,0.2-0.9,0.3c-0.6,0.2-1.2,0.4-1.8,0.5c-0.6,0.1-1.1,0.3-1.6,0.4C36.1,166.9,35.4,167,35.4,167z"/>
	<path fill="#FFFFFF" d="M26.9,163.3c0,0,0.8,0.3,2,0.5c0.6,0.1,1.3,0.2,2.1,0.2c0.8,0,1.6-0.1,2.5-0.2c0.8-0.2,1.7-0.4,2.4-0.7
		c0.4-0.1,0.7-0.3,1-0.5c0.3-0.2,0.6-0.3,0.9-0.5c0.5-0.4,0.9-0.7,1.1-1c0.3-0.3,0.4-0.4,0.4-0.4s-0.2,0.1-0.5,0.2
		c-0.2,0.1-0.4,0.2-0.6,0.3c-0.2,0.1-0.5,0.2-0.8,0.3c-0.3,0.1-0.6,0.2-0.9,0.3c-0.3,0.1-0.7,0.2-1,0.3c-0.3,0.1-0.7,0.2-1.1,0.3
		c-0.4,0.1-0.8,0.2-1.1,0.2c-0.4,0.1-0.8,0.1-1.2,0.2c-0.4,0-0.8,0.1-1.1,0.1c-0.7,0.1-1.4,0.1-2,0.2
		C27.7,163.2,26.9,163.3,26.9,163.3z"/>
	<path fill="#FFFFFF" d="M20.8,158.2c0,0,0.8,0.4,2,0.6c0.6,0.1,1.3,0.2,2.1,0.2c0.8,0,1.6,0,2.5-0.2c0.8-0.2,1.7-0.4,2.4-0.7
		c0.4-0.1,0.7-0.3,1-0.5c0.3-0.2,0.6-0.3,0.9-0.5c0.5-0.4,0.9-0.7,1.2-1c0.3-0.3,0.4-0.4,0.4-0.4s-0.2,0.1-0.5,0.2
		c-0.2,0.1-0.4,0.2-0.6,0.3c-0.2,0.1-0.5,0.2-0.8,0.3c-0.3,0.1-0.6,0.2-0.9,0.3c-0.3,0.1-0.7,0.2-1,0.3c-0.3,0.1-0.7,0.2-1.1,0.3
		c-0.4,0.1-0.8,0.1-1.2,0.2c-0.4,0.1-0.8,0.1-1.2,0.2c-0.4,0-0.8,0.1-1.1,0.1c-0.7,0.1-1.4,0.1-2.1,0.1
		C21.6,158.2,20.8,158.2,20.8,158.2z"/>
	<path fill="#FFFFFF" d="M15.8,152.1c0,0,0.7,0.5,1.9,0.9c0.6,0.2,1.3,0.4,2.1,0.5c0.8,0.1,1.6,0.2,2.5,0.2c0.8,0,1.7-0.1,2.5-0.3
		c0.4-0.1,0.8-0.2,1.1-0.3c0.3-0.1,0.7-0.2,0.9-0.4c0.6-0.3,1-0.6,1.3-0.8c0.3-0.2,0.5-0.4,0.5-0.4s-0.2,0-0.6,0.1
		c-0.2,0.1-0.4,0.1-0.6,0.2c-0.2,0.1-0.5,0.1-0.8,0.2c-0.3,0.1-0.6,0.1-0.9,0.2c-0.3,0.1-0.7,0.1-1.1,0.1c-0.4,0.1-0.7,0.1-1.1,0.1
		c-0.4,0-0.8,0-1.2,0c-0.4,0-0.8,0-1.2,0c-0.4,0-0.8,0-1.1-0.1c-0.7,0-1.4-0.1-2-0.2C16.6,152.2,15.8,152.1,15.8,152.1z"/>
	<path fill="#FFFFFF" d="M52.2,158.6c0,0,0.5-0.9,0.9-2.3c0.2-0.7,0.4-1.5,0.6-2.4c0.2-0.9,0.2-1.9,0.3-2.8c0-1,0-2-0.1-2.9
		c-0.1-0.5-0.1-0.9-0.2-1.3c-0.1-0.4-0.2-0.8-0.3-1.1c-0.2-0.7-0.5-1.3-0.7-1.6c-0.2-0.4-0.3-0.6-0.3-0.6s0,0.2,0.1,0.7
		c0,0.2,0.1,0.5,0.1,0.7c0,0.3,0.1,0.6,0.1,1c0.1,0.3,0.1,0.7,0.1,1.1c0,0.4,0,0.8,0.1,1.3c0,0.4,0,0.9,0,1.4c0,0.5,0,0.9,0,1.4
		c0,0.5,0,0.9-0.1,1.4c0,0.5-0.1,0.9-0.1,1.4c-0.1,0.9-0.1,1.7-0.2,2.4C52.3,157.6,52.2,158.6,52.2,158.6z"/>
	<path fill="#FFFFFF" d="M46.2,156.2c0,0,0.5-1,0.9-2.7c0.2-0.8,0.4-1.8,0.6-2.8c0.2-1,0.3-2.2,0.3-3.3c0-1.1,0-2.3-0.1-3.3
		c-0.1-0.5-0.1-1-0.2-1.5c-0.1-0.5-0.2-0.9-0.3-1.3c-0.2-0.8-0.5-1.5-0.7-1.9c-0.2-0.5-0.3-0.7-0.3-0.7s0,0.3,0.1,0.8
		c0,0.2,0.1,0.5,0.1,0.9c0,0.3,0.1,0.7,0.1,1.1c0.1,0.4,0,0.9,0.1,1.3c0,0.5,0,1,0.1,1.5c0,0.5,0,1,0,1.6c0,0.5,0,1.1,0,1.6
		c0,0.5,0,1.1-0.1,1.6c0,0.5-0.1,1.1-0.1,1.6c-0.1,1-0.1,2-0.2,2.8C46.2,155.1,46.2,156.2,46.2,156.2z"/>
	<path fill="#FFFFFF" d="M39.5,151.9c0,0,0.5-1.2,0.8-3c0.2-0.9,0.3-2,0.4-3.1c0.1-1.2,0.1-2.4,0-3.6c-0.1-0.6-0.1-1.2-0.2-1.9
		c-0.1-0.6-0.2-1.2-0.3-1.8c-0.1-0.6-0.2-1.1-0.4-1.6c-0.2-0.5-0.3-1-0.5-1.4c-0.3-0.9-0.7-1.6-1-2c-0.3-0.5-0.4-0.7-0.4-0.7
		s0.1,0.3,0.2,0.8c0.1,0.3,0.1,0.6,0.2,0.9c0.1,0.4,0.1,0.8,0.2,1.2c0.1,0.4,0.1,0.9,0.2,1.4c0.1,0.5,0.1,1.1,0.2,1.6
		c0.1,0.6,0.1,1.1,0.2,1.7c0.1,0.6,0.1,1.2,0.1,1.8c0,0.6,0.1,1.2,0.1,1.8c0,0.6,0,1.2,0,1.7c0,1.1,0,2.2,0,3.1
		C39.5,150.7,39.5,151.9,39.5,151.9z"/>
	<path fill="#FFFFFF" d="M34.3,148.6c0,0,0.4-0.9,0.7-2.3c0.1-0.7,0.3-1.5,0.3-2.4c0-0.9,0-1.9-0.2-2.8c-0.1-0.5-0.2-1-0.3-1.4
		c-0.1-0.5-0.3-0.9-0.5-1.3c-0.2-0.4-0.3-0.8-0.6-1.2c-0.2-0.4-0.4-0.7-0.6-1c-0.2-0.3-0.4-0.6-0.6-0.8c-0.2-0.2-0.4-0.4-0.5-0.5
		c-0.3-0.3-0.5-0.4-0.5-0.4s0.1,0.2,0.3,0.6c0.1,0.2,0.2,0.4,0.3,0.7c0.1,0.3,0.2,0.6,0.4,0.9c0.1,0.3,0.2,0.7,0.4,1
		c0.1,0.4,0.2,0.8,0.4,1.2c0.1,0.4,0.2,0.8,0.3,1.3c0.1,0.4,0.2,0.9,0.2,1.3c0.1,0.4,0.1,0.9,0.2,1.3c0,0.4,0.1,0.9,0.1,1.3
		c0.1,0.9,0.1,1.7,0.1,2.4C34.3,147.6,34.3,148.6,34.3,148.6z"/>
	<path fill="#FFFFFF" d="M27.1,143.7c0,0,0.4-0.5,0.7-1.3c0.2-0.4,0.3-0.9,0.4-1.5c0.1-0.6,0.1-1.2,0.1-1.8c0-0.6-0.1-1.2-0.3-1.8
		c-0.1-0.3-0.2-0.5-0.3-0.8c-0.1-0.2-0.2-0.5-0.4-0.6c-0.2-0.4-0.5-0.7-0.7-0.8c-0.2-0.2-0.3-0.3-0.3-0.3s0.1,0.1,0.2,0.4
		c0.1,0.1,0.1,0.3,0.2,0.4c0.1,0.2,0.1,0.3,0.2,0.6c0.1,0.2,0.1,0.4,0.2,0.6c0.1,0.2,0.1,0.5,0.2,0.7c0.1,0.3,0.1,0.5,0.1,0.8
		c0,0.3,0,0.5,0.1,0.8c0,0.6,0,1.1,0,1.6c0,0.5-0.1,1-0.1,1.4C27.1,143.1,27.1,143.7,27.1,143.7z"/>
</g>
<path fill="#F7A14B" d="M188.4,87.2l9.3,5.1l0,0c1.2,0.5,1.1,2.3-0.3,2.6l-12.1,2.2l-9.6,8.2c-2.8,2.3-4.9,5.4-6.1,8.9l-4.6,13.5
	l-7.1,0.4l4.3-3.8l1.6-15l-7.6,0.5c0,0-3.5,8-7.1,7.8l0.2,18.7l17.1,7l-2.3,3.2l-22.5-8.7l-4.8-20.1l-10.3-6c0,0-31.4,31.6-39.3,9.9
	c0,0,16,13.2,39.3-19.2c0,0,15.3-30.8,41.6-6.7l3.2-0.8c2.8-0.7,5.3-2.4,7.1-4.6l0.9-1.1c1.1-1.3,2.5-2.2,4.1-2.6l-0.3-0.1l-4.5-3.1
	c-0.2-0.1-0.3-0.3-0.4-0.4l-3.4-4.2c-0.2-0.3,0.1-0.7,0.5-0.6l3.9,1.4c1.3,0.5,2.5,1.4,3.2,2.6l2.5,4.2L188.4,87.2"/>
<circle fill="none" stroke="#2E2800" stroke-width="33" stroke-miterlimit="10" cx="149.4" cy="111.4" r="85.5"/>
<g>
	<path fill="#FFFFFF" d="M89.1,39.3l0.1,0.1c-0.3,0.3-0.5,0.6-0.7,0.9c-0.2,0.3-0.3,0.6-0.3,1.1c0,0.3,0,0.5,0,0.6
		c0,0.1,0,0.2,0,0.4l-0.2,7l9,0.8c0.7,0.1,1.2,0,1.5-0.1c0.3-0.1,0.7-0.4,1.1-0.7l0.1,0.1l-2.3,2.2l-9.9-0.8l3.9,4.1
		c0.7,0.8,1.5,0.8,2.3,0.1l0.1,0.1l-3.4,3.2l-0.1-0.1c0.2-0.2,0.4-0.4,0.4-0.7c0.1-0.2,0.1-0.5,0.1-0.8c-0.1-0.3-0.2-0.6-0.5-0.8
		l-7.7-8.1c-0.4-0.4-0.8-0.6-1.2-0.6c-0.4,0.1-0.7,0.2-1,0.5l-0.1-0.1l3.4-3.2l0.1,0.1c-0.7,0.7-0.8,1.5,0,2.2l3.7,3.9l0.2-8
		c0,0,0,0,0-0.1c0-0.4,0-0.7-0.2-0.9c-0.2-0.2-0.3-0.2-0.5-0.1c-0.2,0.1-0.4,0.2-0.7,0.5l-0.1-0.1L89.1,39.3z"/>
	<path fill="#FFFFFF" d="M98.9,32.2l10.5,8.2c0.5,0.4,1,0.7,1.3,0.8c0.3,0.1,0.6,0.2,0.8,0.1c0.2,0,0.4-0.1,0.7-0.3l0.1,0.1l-4,2.6
		l-0.1-0.1c0.4-0.3,0.7-0.5,0.9-0.7s0.1-0.5-0.1-0.9c-0.1-0.2-0.3-0.4-0.7-0.7c-0.1,0-0.1-0.1-0.1-0.1l-3.2-2.6l-4.3,2.8l1,3.7
		c0.1,0.5,0.3,0.9,0.4,1.1c0.2,0.3,0.5,0.5,0.7,0.5c0.2,0,0.5-0.1,0.8-0.3l0.1,0.1l-2.9,1.9l-0.1-0.1c0.4-0.3,0.6-0.7,0.7-1.1
		c0.1-0.4,0-1-0.2-1.7L98,32.8L98.9,32.2z M100.6,41l3.9-2.5l-5.8-4.6l0,0L100.6,41z"/>
	<path fill="#FFFFFF" d="M109,26.8l-0.2,0.1l-0.1-0.2l4.7-1.9c0.8-0.3,1.4-0.5,2.1-0.4s1.2,0.2,1.6,0.4c0.4,0.2,0.8,0.5,1.1,0.9
		c0.3,0.3,0.5,0.7,0.7,1.1c0.2,0.5,0.3,1,0.3,1.5c0,0.5-0.2,1.1-0.5,1.6c-0.3,0.5-0.7,0.9-1.3,1.3l0,0c1,0.1,2,0.5,3.2,1.4l2.1,1.6
		c0.9,0.7,1.6,1.1,2.1,1.2c0.4,0.1,0.8,0.1,1.2,0l0.1,0.1l-2.5,1c-0.2-0.1-0.3-0.2-0.5-0.3c-0.1-0.1-0.3-0.2-0.5-0.3
		c-0.1-0.1-0.2-0.2-0.4-0.3c-0.2-0.1-0.3-0.2-0.3-0.2l-2.7-2c-0.5-0.4-1.1-0.7-1.5-0.9s-0.9-0.3-1.3-0.3c-0.4,0-0.7,0-0.9,0
		c-0.3,0.1-0.5,0.2-0.9,0.3l2,5c0.4,1,1.1,1.3,2.1,0.9l0.1,0.1l-4.3,1.8l-0.1-0.1c0.3-0.1,0.5-0.3,0.7-0.4c0.2-0.2,0.3-0.4,0.3-0.7
		c0-0.3,0-0.6-0.1-1l-4.2-10.3c-0.2-0.5-0.5-0.9-0.9-1C109.6,26.7,109.3,26.7,109,26.8z M114.3,32.1l0.8-0.3
		c0.8-0.3,1.4-0.7,1.9-1.2c0.4-0.4,0.7-0.9,0.7-1.5c0.1-0.5,0-1.1-0.3-1.7c-0.2-0.5-0.5-1-0.9-1.4c-0.4-0.4-0.9-0.7-1.6-0.8
		s-1.4,0-2.2,0.3c-0.3,0.1-0.6,0.3-0.8,0.4L114.3,32.1z"/>
	<path fill="#FFFFFF" d="M126.1,27.7l5.1-1.3l0.2,0.8l-5.1,1.3L126.1,27.7z"/>
	<path fill="#FFFFFF" d="M147.9,20.4l-0.2,0c-0.3-0.9-0.9-1.6-1.9-2.1c-1-0.4-2-0.6-3.2-0.5c-0.6,0.1-1.3,0.2-1.9,0.5
		c-0.7,0.2-1.3,0.6-2,1.2c-0.6,0.6-1.1,1.3-1.5,2.3c-0.4,1-0.5,2.2-0.4,3.6c0.2,2.3,0.9,4.1,2.1,5.3c1.2,1.3,2.9,1.8,5.3,1.6
		c0.9-0.1,1.6-0.2,2-0.4c0.4-0.2,0.7-0.4,0.8-0.6c0.1-0.2,0.1-0.5,0.1-0.9l-0.2-2.7c-0.1-0.6-0.2-1-0.5-1.2
		c-0.3-0.2-0.7-0.3-1.3-0.3l0-0.2l4.8-0.4l0,0.2c-0.4,0.1-0.8,0.2-1,0.4c-0.2,0.2-0.4,0.4-0.4,0.6c-0.1,0.2-0.1,0.5,0,0.9l0.3,4.1
		c-1.4,0.5-2.9,0.8-4.5,1c-0.8,0.1-1.6,0.1-2.4,0c-0.8-0.1-1.6-0.3-2.5-0.7c-0.9-0.4-1.7-1-2.4-1.8c-1.1-1.3-1.7-2.7-1.8-4.4
		c-0.1-1,0-2,0.3-2.9c0.3-1,0.7-1.8,1.4-2.6c0.6-0.8,1.4-1.5,2.4-2c1-0.5,2.1-0.8,3.3-0.9c0.5,0,0.9,0,1.4,0c0.5,0,1.1,0.1,2,0.2
		c0.4,0,0.6,0.1,0.8,0.1c0.3,0,0.5-0.2,0.7-0.5l0.2,0L147.9,20.4z"/>
	<path fill="#FFFFFF" d="M161,18.1l2.9,13c0.2,0.7,0.3,1.2,0.5,1.5c0.2,0.3,0.3,0.5,0.5,0.6c0.2,0.1,0.4,0.2,0.7,0.2l0,0.2l-4.8-0.6
		l0-0.2c0.5,0.1,0.9,0.1,1.1,0c0.3-0.1,0.4-0.3,0.5-0.7c0-0.2,0-0.5-0.1-0.9c0-0.1,0-0.1,0-0.1l-0.8-4l-5-0.6l-1.6,3.4
		c-0.2,0.5-0.3,0.9-0.4,1.1c0,0.4,0,0.7,0.2,0.9c0.2,0.2,0.5,0.3,0.8,0.3l0,0.2l-3.4-0.4l0-0.2c0.5,0,0.9-0.1,1.2-0.4
		c0.3-0.3,0.6-0.8,0.9-1.4l5.6-12.1L161,18.1z M156.7,26l4.6,0.6l-1.5-7.2l0,0L156.7,26z"/>
	<path fill="#FFFFFF" d="M172.2,20.4l-0.2-0.1l0.1-0.2l4.8,1.5c0.8,0.2,1.4,0.6,1.9,1c0.5,0.4,0.8,0.8,1,1.3
		c0.2,0.5,0.3,0.9,0.3,1.4c0,0.5-0.1,0.9-0.2,1.3c-0.2,0.5-0.4,1-0.8,1.4c-0.4,0.4-0.8,0.7-1.4,0.9c-0.5,0.2-1.2,0.3-1.9,0.2l0,0
		c0.7,0.7,1.2,1.7,1.6,3.1l0.6,2.5c0.3,1.1,0.5,1.9,0.8,2.2c0.3,0.4,0.6,0.6,0.9,0.8l0,0.2l-2.5-0.8c-0.1-0.2-0.1-0.3-0.2-0.5
		c-0.1-0.2-0.1-0.3-0.2-0.5c0-0.1-0.1-0.3-0.1-0.5c-0.1-0.2-0.1-0.4-0.1-0.4l-0.8-3.3c-0.2-0.7-0.4-1.2-0.6-1.7
		c-0.2-0.5-0.5-0.8-0.7-1.1s-0.5-0.4-0.7-0.5c-0.2-0.1-0.5-0.2-0.8-0.3l-1.6,5.1c-0.3,1,0,1.7,1,2l0,0.2l-4.5-1.4l0-0.2
		c0.3,0.1,0.5,0.1,0.8,0.1c0.2,0,0.5-0.1,0.7-0.3c0.2-0.2,0.4-0.5,0.5-0.8l3.3-10.6c0.2-0.6,0.2-1,0-1.3
		C172.8,20.7,172.5,20.5,172.2,20.4z M172.9,27.9l0.8,0.3c0.8,0.3,1.6,0.4,2.2,0.3c0.6-0.1,1.1-0.3,1.5-0.7c0.4-0.4,0.7-0.9,0.9-1.5
		c0.2-0.5,0.2-1.1,0.2-1.7c-0.1-0.6-0.3-1.1-0.7-1.6c-0.4-0.5-1-0.9-1.9-1.2c-0.4-0.1-0.7-0.2-0.9-0.2L172.9,27.9z"/>
	<path fill="#FFFFFF" d="M197.9,39.3c-0.7,1.2-1.6,2.2-2.7,2.9c-1.2,0.7-2.4,1.1-3.8,1.1c-1.4,0.1-2.7-0.3-3.9-1
		c-1.3-0.7-2.2-1.6-3-2.8c-0.7-1.2-1.1-2.5-1.1-3.8c0-1.4,0.3-2.7,1-3.9c0.5-0.9,1.2-1.7,2-2.4c0.8-0.6,1.7-1.1,2.7-1.4
		c1-0.3,2-0.3,3-0.2c1,0.1,2,0.4,2.9,0.9c0.9,0.5,1.6,1.1,2.3,1.9c0.6,0.8,1.1,1.6,1.4,2.6c0.3,1,0.4,2,0.3,3S198.4,38.3,197.9,39.3
		z M196.3,38.4c0.9-1.7,1.4-3.2,1.3-4.5c-0.1-1.3-0.4-2.3-1-3.1c-0.6-0.8-1.3-1.3-2-1.7c-0.5-0.3-1.2-0.5-1.8-0.7
		c-0.7-0.1-1.4-0.1-2.2,0c-0.8,0.2-1.6,0.6-2.5,1.3c-0.8,0.7-1.6,1.6-2.3,2.9c-0.6,1.1-1,2.2-1.1,3.1c-0.2,1-0.1,1.9,0.1,2.7
		s0.6,1.5,1.1,2.1c0.5,0.6,1.1,1,1.7,1.4c0.6,0.3,1.3,0.6,2,0.7c0.7,0.1,1.5,0.1,2.3-0.1c0.8-0.2,1.5-0.6,2.3-1.3
		C194.9,40.6,195.6,39.6,196.3,38.4z"/>
	<path fill="#FFFFFF" d="M213.4,52.6c-0.9,1-2,1.7-3.3,2.2c-1.3,0.4-2.6,0.5-4,0.2c-1.3-0.3-2.5-0.9-3.6-1.8c-1.1-1-1.8-2.1-2.2-3.4
		c-0.4-1.3-0.5-2.7-0.2-4c0.3-1.3,0.9-2.5,1.8-3.6c0.7-0.8,1.6-1.4,2.5-1.8c0.9-0.4,1.9-0.7,2.9-0.7c1,0,2,0.1,3,0.5
		c1,0.3,1.8,0.9,2.6,1.6c0.7,0.7,1.3,1.5,1.8,2.4c0.4,0.9,0.7,1.8,0.8,2.9c0.1,1-0.1,2-0.4,3C214.7,50.8,214.1,51.7,213.4,52.6z
		 M212,51.4c1.3-1.4,2.1-2.8,2.3-4.1c0.2-1.3,0.1-2.4-0.3-3.3s-0.9-1.6-1.5-2.1c-0.5-0.4-1-0.8-1.6-1.1c-0.6-0.3-1.4-0.5-2.2-0.5
		c-0.8,0-1.7,0.2-2.7,0.6c-1,0.5-1.9,1.2-2.9,2.3c-0.9,0.9-1.5,1.9-1.8,2.8c-0.4,0.9-0.6,1.8-0.5,2.6c0,0.8,0.2,1.6,0.6,2.3
		c0.3,0.7,0.8,1.3,1.4,1.8c0.5,0.5,1.1,0.8,1.8,1.1c0.7,0.3,1.4,0.4,2.2,0.4c0.8,0,1.6-0.2,2.5-0.7S211.1,52.4,212,51.4z"/>
</g>
<g id="medium" class="disappear">
	<g>
		<path fill="#FFFFFF" d="M119.7,180L119.7,180c0-0.5,0-0.9-0.1-1.4c-0.2-0.4-0.4-0.8-0.8-1.2c-0.3-0.3-0.7-0.6-1-0.8
			c-0.5-0.2-1-0.4-1.5-0.4c-0.5,0-1,0.1-1.5,0.3c-0.5,0.2-1,0.5-1.4,1c-0.4,0.4-0.8,0.9-1.1,1.6c-0.3,0.6-0.5,1.2-0.6,1.8
			c-0.1,0.6-0.1,1.1,0.1,1.7c0.1,0.5,0.4,1,0.7,1.4c0.3,0.4,0.7,0.7,1.2,1c0.4,0.2,0.9,0.4,1.5,0.4c0.6,0.1,1.2,0,1.8-0.2l-0.2,0.3
			c-0.7,0.1-1.3,0.2-1.8,0.2c-0.5,0-1.1-0.2-1.7-0.5c-0.7-0.3-1.2-0.8-1.6-1.3c-0.4-0.5-0.7-1.1-0.9-1.7c-0.2-0.6-0.2-1.2-0.2-1.8
			s0.2-1.2,0.5-1.7c0.4-0.8,1-1.5,1.7-2c0.8-0.5,1.6-0.8,2.5-0.8c0.9-0.1,1.7,0.1,2.5,0.5c0.5,0.2,1,0.6,1.5,1l0.5,0.5
			c0.1,0.1,0.2,0.1,0.3,0.2c0.1,0.1,0.3,0.1,0.3,0.1c0.1,0,0.1-0.1,0.2-0.2l0.1,0L119.7,180z"/>
		<path fill="#FFFFFF" d="M128.2,185.8c-0.3,0.8-0.8,1.5-1.4,2.1c-0.7,0.6-1.4,0.9-2.3,1.1c-0.9,0.2-1.7,0.1-2.6-0.2
			c-0.9-0.3-1.6-0.8-2.1-1.5c-0.6-0.7-0.9-1.4-1.1-2.3c-0.2-0.9-0.1-1.7,0.2-2.6c0.2-0.6,0.6-1.2,1-1.7c0.4-0.5,1-0.9,1.6-1.1
			c0.6-0.3,1.2-0.4,1.9-0.4c0.6,0,1.3,0.1,1.9,0.3c0.6,0.2,1.1,0.5,1.6,1c0.5,0.4,0.9,0.9,1.1,1.5c0.3,0.6,0.5,1.2,0.5,1.9
			C128.5,184.5,128.4,185.1,128.2,185.8z M127.1,185.5c0.4-1.2,0.5-2.2,0.4-3c-0.2-0.8-0.5-1.4-1-1.8c-0.5-0.4-0.9-0.7-1.4-0.9
			c-0.4-0.1-0.8-0.2-1.2-0.2s-0.9,0.1-1.4,0.2s-1,0.5-1.4,1c-0.5,0.5-0.8,1.2-1.1,2c-0.3,0.8-0.4,1.5-0.4,2.1c0,0.6,0.1,1.2,0.3,1.7
			s0.5,0.9,0.9,1.2c0.4,0.3,0.8,0.5,1.2,0.7c0.4,0.1,0.9,0.2,1.3,0.2c0.5,0,0.9-0.1,1.4-0.3c0.5-0.2,0.9-0.5,1.3-1
			C126.5,186.9,126.8,186.3,127.1,185.5z"/>
		<path fill="#FFFFFF" d="M139.3,183.4l0,0.1c-0.2,0-0.3,0-0.4,0c-0.1,0-0.2,0-0.3,0.1c-0.2,0.1-0.3,0.2-0.3,0.2
			c-0.1,0.1-0.1,0.2-0.2,0.5c0,0,0,0.1,0,0.1l-1.1,6.9c-0.1,0.3,0,0.5,0,0.8c0.1,0.2,0.3,0.4,0.8,0.5l0,0.1l-3-0.6l0-0.1
			c0.4,0,0.7,0,0.9-0.2c0.2-0.2,0.3-0.4,0.4-0.8l1.2-7.1l0,0l-5,7.6l-1.4-8.7l0,0l-1.7,6.4c-0.1,0.4-0.1,0.6-0.1,0.8
			s0.1,0.4,0.2,0.5c0.1,0.1,0.3,0.2,0.5,0.3l0,0.1l-2.3-0.5l0-0.1c0.3,0.1,0.5,0,0.7-0.1c0.2-0.1,0.3-0.3,0.4-0.4
			c0.1-0.2,0.2-0.5,0.3-0.8l1.8-6.6c0,0,0-0.1,0-0.1c0-0.1-0.1-0.2-0.1-0.2c-0.1-0.1-0.1-0.1-0.2-0.2c-0.1-0.1-0.2-0.2-0.3-0.2
			c-0.1,0-0.2-0.1-0.4-0.1l0-0.1l2.1,0.4l1.2,8.1l4.5-6.9L139.3,183.4z"/>
		<path fill="#FFFFFF" d="M139.2,183.4l0-0.1l3.1,0.3c0.5,0.1,1,0.2,1.3,0.3c0.4,0.2,0.7,0.4,0.9,0.7c0.2,0.3,0.4,0.6,0.5,0.9
			c0.1,0.3,0.1,0.6,0.1,1c0,0.3-0.1,0.6-0.3,0.9s-0.4,0.5-0.6,0.7s-0.6,0.4-1.1,0.5c-0.4,0.1-0.9,0.1-1.5,0.1c-0.2,0-0.5-0.1-1-0.2
			l-0.3,3.2c-0.1,0.7,0.2,1,0.9,1.1l0,0.1l-3-0.3l0-0.1c0.3,0,0.5,0,0.7-0.2c0.2-0.1,0.3-0.4,0.4-0.7l0.7-7c0-0.2,0-0.4,0-0.5
			c-0.1-0.2-0.1-0.3-0.2-0.3c-0.1-0.1-0.2-0.1-0.3-0.2c-0.1,0-0.2-0.1-0.2-0.1L139.2,183.4z M141.2,183.8l-0.4,4.4
			c0.3,0.1,0.6,0.2,1,0.2c0.6,0.1,1.1,0,1.6-0.3c0.5-0.3,0.7-0.8,0.8-1.7c0.1-0.7-0.1-1.3-0.4-1.8c-0.3-0.5-0.9-0.8-1.6-0.8
			C141.8,183.8,141.5,183.8,141.2,183.8z"/>
		<path fill="#FFFFFF" d="M148.5,183.9l2.7,8.1c0.1,0.4,0.3,0.7,0.4,0.9c0.1,0.2,0.3,0.3,0.4,0.4c0.1,0,0.3,0.1,0.5,0.1l0,0.1
			l-3.1-0.1l0-0.1c0.3,0,0.6,0,0.7-0.1c0.2-0.1,0.3-0.2,0.3-0.5c0-0.1,0-0.3-0.1-0.6c0,0,0-0.1,0-0.1l-0.8-2.5l-3.2-0.1l-0.8,2.3
			c-0.1,0.3-0.2,0.6-0.2,0.8c0,0.3,0.1,0.4,0.2,0.5c0.1,0.1,0.3,0.1,0.6,0.1l0,0.1l-2.2,0l0-0.1c0.3,0,0.6-0.1,0.8-0.3
			c0.2-0.2,0.4-0.5,0.5-0.9l2.8-8L148.5,183.9z M146.2,189.1l3,0.1l-1.4-4.5h0L146.2,189.1z"/>
		<path fill="#FFFFFF" d="M152,184.2l-0.1,0l0-0.1l3.2-0.3c0.5,0,1,0,1.3,0.1c0.4,0.1,0.7,0.3,0.9,0.5c0.2,0.2,0.4,0.5,0.5,0.7
			c0.1,0.3,0.2,0.5,0.2,0.8c0,0.3,0,0.7-0.1,1c-0.1,0.3-0.3,0.6-0.6,0.9c-0.3,0.2-0.6,0.4-1.1,0.5l0,0c0.6,0.2,1.1,0.7,1.7,1.5
			l1,1.4c0.4,0.6,0.8,1,1,1.1s0.5,0.2,0.7,0.2l0,0.1l-1.7,0.1c-0.1-0.1-0.2-0.2-0.2-0.3c-0.1-0.1-0.1-0.2-0.2-0.3
			c0-0.1-0.1-0.1-0.2-0.3c-0.1-0.1-0.1-0.2-0.2-0.2l-1.3-1.7c-0.3-0.4-0.5-0.6-0.8-0.9c-0.3-0.2-0.5-0.4-0.7-0.4
			c-0.2-0.1-0.4-0.1-0.6-0.1s-0.4,0-0.6,0l0.3,3.4c0.1,0.7,0.4,1,1.1,0.9l0,0.1l-3,0.3l0-0.1c0.2,0,0.3-0.1,0.5-0.1
			c0.1-0.1,0.2-0.2,0.3-0.3c0.1-0.2,0.1-0.4,0.1-0.6l-0.6-7c0-0.4-0.1-0.6-0.3-0.8C152.4,184.2,152.2,184.1,152,184.2z M154.2,188.4
			l0.5,0c0.6,0,1-0.2,1.3-0.4c0.3-0.2,0.6-0.4,0.7-0.8c0.1-0.3,0.2-0.7,0.1-1.1c0-0.4-0.1-0.7-0.3-1c-0.2-0.3-0.4-0.6-0.8-0.8
			c-0.4-0.2-0.8-0.3-1.4-0.2c-0.2,0-0.4,0.1-0.6,0.1L154.2,188.4z"/>
		<path fill="#FFFFFF" d="M166.6,183.9L166.6,183.9c-0.3-0.6-0.5-0.9-0.8-1.1c-0.3-0.1-0.7-0.1-1.2-0.1l-1.8,0.3l1.4,7.7
			c0.1,0.7,0.5,0.9,1.2,0.8l0,0.1l-2.9,0.5l0-0.1c0.3-0.1,0.5-0.2,0.7-0.4c0.2-0.2,0.2-0.5,0.1-0.8l-1.4-7.7l-1.8,0.3
			c-0.4,0.1-0.8,0.2-1.1,0.5c-0.3,0.2-0.4,0.7-0.3,1.3l-0.1,0l-0.4-2.2l0.1,0c0.1,0.1,0.2,0.2,0.2,0.2c0.1,0,0.1,0.1,0.2,0.1
			c0.1,0,0.2,0,0.3,0c0.1,0,0.2,0,0.4,0l6-1.1c0.4-0.1,0.7-0.3,0.8-0.6l0.1,0L166.6,183.9z"/>
		<path fill="#FFFFFF" d="M165.8,182.3l0-0.1l5.4-1.5l0.4,1.4l-0.1,0c-0.2-0.8-0.8-1-1.8-0.7l-1.9,0.5l1.1,4.1l1.7-0.5
			c0.3-0.1,0.6-0.2,0.8-0.4c0.2-0.2,0.3-0.5,0.2-0.8l0.1,0l0.6,2l-0.1,0c-0.1-0.2-0.2-0.4-0.4-0.5s-0.3-0.2-0.4-0.2
			c-0.1,0-0.2,0-0.3,0c-0.2,0-0.3,0-0.5,0.1l-1.7,0.5l0.9,3.2c0.1,0.2,0.2,0.4,0.3,0.6c0.1,0.1,0.4,0.2,0.7,0.1l1.3-0.4
			c0.3-0.1,0.6-0.2,0.8-0.4c0.2-0.2,0.3-0.3,0.4-0.5c0.1-0.2,0.1-0.4,0.1-0.7l0.1,0l0.1,1.5l-5.4,1.5l0-0.1l0.1,0
			c0.2-0.1,0.4-0.2,0.5-0.4c0.1-0.2,0.2-0.5,0.1-0.8l-1.9-6.8c-0.1-0.3-0.2-0.5-0.4-0.7c-0.2-0.2-0.4-0.2-0.7-0.1L165.8,182.3z"/>
		<path fill="#FFFFFF" d="M182.3,178.3L182.3,178.3c-0.4-0.5-0.7-0.8-1-0.8c-0.4,0-0.7,0-1.2,0.2l-1.7,0.7l3.1,7.2
			c0.3,0.6,0.7,0.8,1.3,0.6l0,0.1l-2.7,1.2l0-0.1c0.3-0.1,0.4-0.3,0.6-0.5c0.1-0.2,0.1-0.5,0-0.8l-3.1-7.2l-1.7,0.7
			c-0.4,0.2-0.7,0.4-0.9,0.7c-0.2,0.3-0.2,0.7,0,1.3l-0.1,0l-0.9-2.1l0.1,0c0.1,0.1,0.2,0.1,0.3,0.1s0.1,0,0.2,0c0.1,0,0.2,0,0.3,0
			s0.2-0.1,0.4-0.1l5.6-2.4c0.4-0.2,0.6-0.4,0.7-0.8l0.1,0L182.3,178.3z"/>
		<path fill="#FFFFFF" d="M193.7,180.5l-1.7,1l-0.8-1.4l0,0c0.1,0.7-0.1,1.3-0.4,1.8c-0.3,0.5-0.7,0.9-1.3,1.2
			c-0.6,0.3-1.2,0.5-1.8,0.5c-0.6,0-1.2-0.2-1.6-0.4c-0.3-0.2-0.6-0.4-0.8-0.7c-0.2-0.3-0.4-0.6-0.6-0.9l-2.3-4.1
			c-0.1-0.2-0.3-0.4-0.5-0.5c-0.2-0.1-0.5-0.1-0.9,0.1l-0.1-0.1l2.6-1.4l0.1,0.1c-0.4,0.3-0.5,0.5-0.5,0.7c0,0.2,0.1,0.5,0.2,0.7
			l2.2,4c0.5,0.8,0.9,1.4,1.3,1.7c0.4,0.3,0.9,0.5,1.3,0.5c0.5,0,1-0.1,1.4-0.3c0.2-0.1,0.4-0.3,0.6-0.5c0.2-0.2,0.4-0.5,0.5-0.7
			c0.4-0.8,0.3-1.8-0.2-2.8l-2.5-4.5c-0.1-0.2-0.3-0.4-0.5-0.5c-0.2-0.1-0.5-0.1-0.9,0.1l-0.1-0.1l2.6-1.5l0.1,0.1
			c-0.4,0.2-0.5,0.5-0.5,0.7c0,0.3,0.1,0.5,0.2,0.7l3.5,6.2c0.1,0.2,0.3,0.4,0.4,0.4s0.3,0.1,0.4,0.1
			C193.2,180.6,193.4,180.5,193.7,180.5L193.7,180.5z"/>
	</g>
	<g>
		<path fill="#FFFFFF" d="M117.1,193.2l-0.1-0.1c0.3-0.7,0.3-1.2,0-1.5c-0.2-0.3-0.6-0.6-1.1-0.9l-2-0.9l-3.9,8.4
			c-0.3,0.7-0.1,1.2,0.6,1.6l0,0.1l-3.2-1.5l0-0.1c0.3,0.1,0.6,0.2,0.9,0.1c0.3-0.1,0.5-0.3,0.7-0.7l3.9-8.4l-2-0.9
			c-0.5-0.2-0.9-0.3-1.4-0.3s-0.8,0.4-1.2,1l-0.1-0.1l1.1-2.4l0.1,0c0,0.1,0,0.3,0.1,0.3c0,0.1,0.1,0.2,0.1,0.2
			c0.1,0.1,0.2,0.2,0.3,0.2s0.2,0.1,0.4,0.2l6.5,3c0.4,0.2,0.8,0.2,1.2,0l0.1,0L117.1,193.2z"/>
		<path fill="#FFFFFF" d="M117.5,191.2l-0.1,0l0.1-0.1l3.6,1.2c0.6,0.2,1,0.5,1.4,0.8c0.3,0.3,0.6,0.7,0.7,1c0.1,0.4,0.2,0.7,0.2,1
			c0,0.3-0.1,0.7-0.2,1c-0.1,0.4-0.3,0.7-0.6,1c-0.3,0.3-0.6,0.5-1,0.6c-0.4,0.1-0.9,0.2-1.4,0.1l0,0c0.5,0.5,0.9,1.3,1.1,2.4
			l0.4,1.9c0.2,0.9,0.4,1.4,0.6,1.7c0.2,0.3,0.4,0.5,0.7,0.6l0,0.1l-1.9-0.7c0-0.1-0.1-0.3-0.1-0.4c0-0.1-0.1-0.3-0.1-0.4
			c0-0.1-0.1-0.2-0.1-0.4c0-0.2-0.1-0.3-0.1-0.3l-0.5-2.5c-0.1-0.5-0.2-0.9-0.4-1.3c-0.2-0.4-0.4-0.6-0.5-0.8
			c-0.2-0.2-0.4-0.3-0.5-0.4s-0.4-0.2-0.6-0.3l-1.3,3.8c-0.3,0.7,0,1.3,0.7,1.5l0,0.1l-3.3-1.1l0-0.1c0.2,0.1,0.4,0.1,0.6,0.1
			c0.2,0,0.4-0.1,0.5-0.2c0.2-0.1,0.3-0.3,0.4-0.6l2.7-7.9c0.1-0.4,0.1-0.7,0-1C117.9,191.4,117.7,191.3,117.5,191.2z M117.8,196.8
			l0.6,0.2c0.6,0.2,1.2,0.3,1.6,0.3c0.5,0,0.8-0.2,1.1-0.5c0.3-0.3,0.5-0.6,0.7-1.1c0.1-0.4,0.2-0.8,0.2-1.3c0-0.4-0.2-0.9-0.5-1.3
			c-0.3-0.4-0.8-0.7-1.4-0.9c-0.3-0.1-0.5-0.1-0.7-0.2L117.8,196.8z"/>
		<path fill="#FFFFFF" d="M130.5,194.8l1.1,10c0.1,0.5,0.1,0.9,0.2,1.1c0.1,0.2,0.2,0.4,0.3,0.5c0.1,0.1,0.3,0.2,0.5,0.2l0,0.1
			l-3.5-0.8l0-0.1c0.4,0.1,0.6,0.1,0.9,0.1c0.2,0,0.4-0.2,0.4-0.5c0-0.2,0-0.4,0-0.7c0,0,0-0.1,0-0.1l-0.3-3.1l-3.7-0.9l-1.5,2.4
			c-0.2,0.3-0.3,0.6-0.4,0.8c-0.1,0.3,0,0.5,0.1,0.7c0.1,0.1,0.3,0.2,0.6,0.3l0,0.1l-2.5-0.6l0-0.1c0.4,0,0.7,0,1-0.2
			c0.3-0.2,0.5-0.5,0.8-1l5.2-8.6L130.5,194.8z M126.6,200.4l3.4,0.8l-0.6-5.5l0,0L126.6,200.4z"/>
		<path fill="#FFFFFF" d="M145.7,197.2l0,0.1c-0.3,0-0.5,0-0.7,0.1c-0.2,0.1-0.3,0.2-0.4,0.4c-0.1,0.2-0.2,0.5-0.2,0.9l-1.1,9.6
			l-0.1,0l-7.4-10.3l-0.8,6.8c-0.1,0.6-0.1,1-0.1,1.3s0.1,0.5,0.1,0.6c0.2,0.3,0.5,0.5,0.9,0.5l0,0.1l-2.7-0.3l0-0.1
			c0.3,0,0.6,0,0.7-0.1c0.2-0.1,0.3-0.3,0.4-0.6c0.1-0.3,0.2-0.8,0.3-1.4l0.8-7.2l-0.3-0.5c-0.3-0.4-0.5-0.7-0.7-0.8
			c-0.2-0.1-0.4-0.2-0.7-0.3l0-0.1l2.1,0.2l7.3,10.2l0.8-7.1c0.1-0.5,0.1-0.9,0.1-1.2s-0.1-0.5-0.3-0.7c-0.2-0.2-0.4-0.3-0.8-0.4
			l0-0.1L145.7,197.2z"/>
		<path fill="#FFFFFF" d="M151,199.3l-0.1,0c-0.1-0.5-0.3-1-0.7-1.4c-0.4-0.4-0.9-0.6-1.6-0.6c-0.4,0-0.8,0.1-1.1,0.3
			c-0.3,0.2-0.6,0.5-0.8,0.8s-0.3,0.7-0.3,1.2c0,0.3,0,0.7,0.1,0.9c0.1,0.3,0.3,0.5,0.5,0.7s0.5,0.4,0.7,0.6
			c0.3,0.2,0.7,0.4,1.1,0.7c0.8,0.5,1.4,0.9,1.9,1.4c0.4,0.4,0.7,1.1,0.7,1.8c0,0.5-0.1,0.9-0.4,1.4c-0.2,0.4-0.6,0.8-1.1,1.1
			c-0.5,0.3-1.1,0.4-1.8,0.4c-0.5,0-0.9-0.1-1.2-0.2c-0.3-0.1-0.7-0.2-1.1-0.4c-0.1-0.1-0.3-0.1-0.3-0.1c-0.1,0-0.2,0-0.2,0.1
			c0,0.1-0.1,0.2-0.1,0.5l-0.1,0l0-2.8l0.1,0c0.2,0.8,0.5,1.4,1,1.8c0.5,0.4,1.1,0.6,1.9,0.6c0.6,0,1-0.1,1.3-0.3
			c0.3-0.2,0.6-0.5,0.7-0.8c0.1-0.3,0.2-0.6,0.2-0.9c0-0.6-0.2-1.1-0.5-1.5c-0.4-0.4-0.9-0.8-1.7-1.2c-0.5-0.3-0.9-0.5-1.2-0.7
			c-0.3-0.2-0.5-0.4-0.8-0.6c-0.3-0.3-0.5-0.6-0.6-0.9c-0.2-0.3-0.2-0.7-0.2-1.2c0-0.5,0.2-1,0.4-1.5s0.7-0.8,1.2-1.1
			c0.5-0.3,1.1-0.4,1.7-0.4c0.5,0,1,0.1,1.5,0.3c0.1,0,0.2,0.1,0.3,0.1c0.2,0,0.3-0.1,0.3-0.3h0.1L151,199.3z"/>
		<path fill="#FFFFFF" d="M151.2,197.3l0-0.1l3.6-0.2c0.6,0,1.1,0,1.6,0.1c0.5,0.1,0.9,0.3,1.2,0.6c0.3,0.3,0.6,0.6,0.7,0.9
			s0.3,0.7,0.3,1.1c0,0.4,0,0.8-0.1,1.1c-0.1,0.4-0.3,0.7-0.6,1s-0.7,0.5-1.2,0.7c-0.5,0.2-1,0.3-1.7,0.4c-0.2,0-0.6,0-1.2,0
			l0.2,3.8c0,0.8,0.5,1.2,1.3,1.1l0,0.1l-3.5,0.2l0-0.1c0.3,0,0.6-0.1,0.8-0.3s0.3-0.5,0.3-0.9l-0.5-8.3c0-0.3-0.1-0.5-0.2-0.6
			c-0.1-0.2-0.2-0.3-0.3-0.3c-0.1-0.1-0.2-0.1-0.4-0.1s-0.2,0-0.3,0L151.2,197.3z M153.6,197.4l0.3,5.2c0.4,0,0.8,0.1,1.1,0
			c0.7,0,1.3-0.3,1.8-0.7c0.5-0.4,0.7-1.1,0.6-2.1c-0.1-0.8-0.3-1.5-0.8-2c-0.5-0.5-1.1-0.7-2-0.7
			C154.3,197.3,153.9,197.3,153.6,197.4z"/>
		<path fill="#FFFFFF" d="M170.7,200.3c0.2,1,0.1,2-0.3,3c-0.4,1-0.9,1.8-1.7,2.5s-1.7,1.1-2.8,1.3c-1.1,0.2-2.1,0.1-3.1-0.3
			c-1-0.4-1.8-0.9-2.5-1.7c-0.7-0.8-1.1-1.7-1.3-2.7c-0.1-0.8-0.1-1.6,0.1-2.3s0.5-1.4,1-2.1c0.5-0.6,1-1.1,1.7-1.5
			c0.6-0.4,1.4-0.7,2.1-0.8c0.7-0.1,1.5-0.1,2.2,0c0.7,0.2,1.4,0.4,2,0.9c0.6,0.4,1.2,1,1.6,1.6
			C170.3,198.7,170.6,199.5,170.7,200.3z M169.5,200.6c-0.3-1.4-0.7-2.5-1.4-3.3c-0.7-0.7-1.3-1.2-2.1-1.3c-0.7-0.2-1.4-0.2-2-0.1
			c-0.5,0.1-0.9,0.2-1.4,0.5c-0.5,0.2-0.9,0.6-1.3,1.1c-0.4,0.5-0.7,1.1-0.9,1.9c-0.2,0.8-0.2,1.7,0,2.8c0.2,0.9,0.4,1.7,0.8,2.4
			c0.4,0.7,0.8,1.2,1.3,1.5c0.5,0.4,1,0.6,1.6,0.7c0.6,0.1,1.1,0.1,1.7,0c0.5-0.1,1-0.3,1.5-0.5c0.5-0.3,0.9-0.6,1.3-1.1
			c0.4-0.5,0.6-1.1,0.8-1.8C169.6,202.5,169.6,201.6,169.5,200.6z"/>
		<path fill="#FFFFFF" d="M169.8,194.9l-0.1,0l0-0.2l3.7-1c0.6-0.2,1.1-0.2,1.6-0.2c0.5,0.1,0.8,0.2,1.2,0.4
			c0.3,0.2,0.6,0.5,0.7,0.8c0.2,0.3,0.3,0.6,0.4,0.9c0.1,0.4,0.1,0.8,0.1,1.2c-0.1,0.4-0.2,0.8-0.5,1.1c-0.3,0.4-0.6,0.6-1.1,0.9
			l0,0c0.7,0.1,1.5,0.6,2.3,1.3l1.4,1.3c0.6,0.6,1.1,1,1.4,1.1c0.3,0.1,0.6,0.2,0.9,0.1l0,0.1l-1.9,0.5c-0.1-0.1-0.2-0.2-0.3-0.2
			s-0.2-0.2-0.3-0.2c-0.1-0.1-0.2-0.1-0.3-0.3c-0.1-0.1-0.2-0.2-0.2-0.2l-1.9-1.7c-0.4-0.4-0.7-0.6-1.1-0.8
			c-0.3-0.2-0.6-0.3-0.9-0.4s-0.5-0.1-0.7,0c-0.2,0-0.4,0.1-0.7,0.1l1.1,3.9c0.2,0.8,0.7,1,1.5,0.8l0,0.1l-3.4,1l0-0.1
			c0.2-0.1,0.4-0.2,0.5-0.3c0.1-0.1,0.2-0.3,0.3-0.5c0.1-0.2,0-0.4,0-0.7l-2.3-8c-0.1-0.4-0.3-0.7-0.6-0.8S170.1,194.8,169.8,194.9z
			 M173.3,199.3l0.6-0.2c0.6-0.2,1.1-0.4,1.5-0.7c0.4-0.3,0.6-0.6,0.7-1c0.1-0.4,0.1-0.8-0.1-1.3c-0.1-0.4-0.3-0.8-0.6-1.1
			c-0.3-0.3-0.6-0.6-1.1-0.8c-0.5-0.2-1-0.1-1.7,0.1c-0.3,0.1-0.5,0.2-0.6,0.3L173.3,199.3z"/>
		<path fill="#FFFFFF" d="M186.6,191.2l-0.1,0c-0.3-0.6-0.7-1-1.1-1.1c-0.4-0.1-0.9,0-1.4,0.2l-2,0.8l3.4,8.6c0.3,0.7,0.8,1,1.6,0.7
			l0,0.1l-3.3,1.3l0-0.1c0.3-0.1,0.5-0.3,0.7-0.6c0.1-0.3,0.1-0.6,0-1l-3.4-8.6l-2,0.8c-0.5,0.2-0.9,0.5-1.1,0.8
			c-0.3,0.3-0.3,0.8-0.1,1.5l-0.1,0l-1-2.5l0.1,0c0.1,0.1,0.2,0.1,0.3,0.2c0.1,0,0.2,0.1,0.3,0.1c0.1,0,0.2,0,0.3,0
			c0.1,0,0.3-0.1,0.4-0.1l6.6-2.6c0.4-0.2,0.7-0.5,0.8-0.9l0.1,0L186.6,191.2z"/>
		<path fill="#FFFFFF" d="M185.3,189.5l-0.1-0.1l5.9-3l0.8,1.6l-0.1,0c-0.4-0.8-1.2-1-2.3-0.4l-2.1,1l2.3,4.5l1.8-0.9
			c0.4-0.2,0.6-0.4,0.9-0.7s0.2-0.6,0.1-1l0.1,0l1.1,2.2l-0.1,0.1c-0.2-0.2-0.3-0.4-0.5-0.5c-0.2-0.1-0.3-0.1-0.5-0.1
			c-0.1,0-0.2,0-0.3,0.1c-0.2,0.1-0.3,0.1-0.5,0.2l-1.9,1l1.8,3.5c0.1,0.3,0.3,0.5,0.5,0.6c0.2,0.1,0.5,0.1,0.8-0.1l1.5-0.7
			c0.4-0.2,0.6-0.4,0.8-0.6c0.2-0.2,0.3-0.5,0.3-0.7c0-0.2,0-0.5,0-0.8l0.1,0l0.4,1.7l-5.9,3l-0.1-0.1l0.1-0.1
			c0.2-0.1,0.4-0.3,0.5-0.6c0.1-0.3,0.1-0.6-0.1-1l-3.8-7.4c-0.2-0.3-0.4-0.5-0.6-0.7c-0.2-0.2-0.5-0.1-0.9,0L185.3,189.5z"/>
	</g>
	<path fill="none" stroke="#FFFFFF" stroke-width="1.6435" stroke-miterlimit="10" d="M78.6,165.8c-10.7-13.5-17.5-30.1-18.9-48.3
		c-0.1-1.7-0.2-3.4-0.3-5.1c0-0.6,0-1.2,0-1.9"/>
	<path fill="none" stroke="#FFFFFF" stroke-width="1.6435" stroke-miterlimit="10" d="M237.7,110.5c0,20.5-6.9,39.4-18.5,54.4"/>
</g>
</svg>
