
<!-- Generator: Adobe Illustrator 18.1.1, SVG Export Plug-In . SVG Version: 6.00 Build 0)  -->
<svg version="1.1" id="Capa_1" xmlns="http://www.w3.org/2000/svg" xmlns:xlink="http://www.w3.org/1999/xlink" x="0px" y="0px"
	 viewBox="0 -21 1008 659" enable-background="new 0 -21 1008 659" xml:space="preserve">
	 
	 <defs>
     	<style type="text/css">
     		#res1 {
     			display:block;
     		}
     		#kangaroo:hover{
     			fill:#01491e;
     		}
     		#emblem{
     			transition: all .2s ease-in-out;
     			cursor:pointer;
     		}
     		#emblem:hover{
     			transform:scale(0.7); 
     			-webkit-transform-origin: 50% 50%;
     		}
     
     		@media only screen and (max-width: 180px){
     			#medium{
     				display:none;
     			}
     		}
     		@media only screen and (max-width: 120px){
     	 		 #res1{
     	 		 	display:none;
     	 		 }
     	 	
     	 		#thick-stoke{
     	 			stroke-width:0;
     	 			fill:#006633;
     	 		}
     	 		#kangaroo{
     	 			fill:#FFFFFF;
     	 		}
     	 		#emblem:hover{
     	 		transition:none;
     			-webkit-animation: animCircle 2s linear infinite;
     			-webkit-transform-origin: 50% 50%;
     			}
     	 	}
     
     	 	@-webkit-keyframes animCircle{
     	 		from{
     	 			-webkit-transform:rotate(0deg);
     	 		}
     	 		to{
     	 			-webkit-transform:rotate(360deg);
     	 		}
     	 	}
     
     	 	@-webkit-keyframes clickedEmblem{
     
     	 		0%{
     	 			opacity: 1;
     	 			-webkit-transform:rotate(0deg);
     	 			-webkit-transform-origin: 50% 50%;
     	 		}
     	 		50%{
     	 			opacity: 0;
     	 		}
     	 		100%{
     	 			opacity: 1;
     	 			-webkit-transform:rotate(360deg);
     	 			-webkit-transform-origin: 50% 50%;
     	 		}
     	 	}
     
     	 	#emblem.onclick .disappear{
     	 		-webkit-animation: clickedEmblem 1s;
     	 	}
     
     	</style>
     	<script type="text/javascript">
     
     		var emblemClick = document.querySelector("#emblem");
     		emblemClick.addEventListener("click",function(){
     			this.classList.toggle("onclick");
     		});
     	</script>
     
     </defs>
	 
	 
	 
	 
	 
<path fill="#EC832F" d="M727.6,308c0-60.6-22.1-116.2-58.6-158.9c-45-52.5-111.6-85.9-186-85.9c-135.2,0-244.8,109.6-244.8,244.8
	c0,6.9,0.3,13.8,0.8,20.5c3,37.2,14.5,71.9,32.3,102.5c42.4,72.7,121.2,121.7,211.6,121.7c131.2,0,238.1-103,244.5-232.7
	C727.4,316,727.6,312,727.6,308z"/>
<path fill="#F7A14B" d="M657.1,215.7l36.4,20l0,0c4.9,2.1,4.2,9.1-1.1,10.2l-47.4,8.8l-37.8,32.1c-11,9.2-19.2,21.4-23.8,35
	l-18.2,53.2l-27.7,1.7l16.8-15l6.1-58.9l-29.7,1.9c0,0-13.9,31.6-27.9,30.6l0.6,73.5l67.3,27.4l-9.1,12.4l-88.2-34l-19-79.1
	L414,312.1c0,0-123.2,124.1-154.5,38.7c0,0,62.9,51.7,154.2-75.5c0,0,59.9-121.1,163.3-26.3l12.5-3.3c10.9-2.8,20.9-9.3,27.9-18.2
	l3.5-4.5c4.3-5.3,9.9-8.7,16.1-10.2l-1.1-0.3l-17.6-12.2c-0.7-0.4-1.3-1.1-1.7-1.6l-13.4-16.5c-0.9-1.2,0.2-2.9,1.8-2.5l15.5,5.6
	c5.2,1.8,9.8,5.5,12.5,10.3l9.7,16.4L657.1,215.7"/>
<path fill="none" stroke="#1D1D1B" stroke-miterlimit="10" d="M1063.6,356"/>
<path fill="#FFFFFF" stroke="#353531" stroke-miterlimit="10" d="M610.3,251.9"/>
<path fill="none" stroke="#FFFFFF" stroke-width="3" stroke-miterlimit="10" d="M482.8,37.4"/>
<path fill="none" stroke="#FFFFFF" stroke-width="3" stroke-miterlimit="10" d="M482.9,578.6"/>
<g id="res2">
	<path fill="none" stroke="#353531" stroke-width="49.999" stroke-miterlimit="10" d="M749.3,308c0-66-24-126.5-63.8-173
		c-48.9-57.1-121.6-93.5-202.7-93.5c-147.1,0-266.5,119.4-266.5,266.5c0,7.5,0.3,14.9,1,22.4c3.3,40.5,15.7,78.4,35.2,111.7
		c46.2,79.2,132.1,132.5,230.5,132.5c142.8,0,259.3-112.2,266.2-253.3C749.1,316.8,749.3,312.4,749.3,308z"/>
	<path fill="none" stroke="#353531" stroke-width="5.1164" stroke-miterlimit="10" d="M790.3,307.9c0-76.2-27.7-146-73.6-199.6
		C660.3,42.4,576.4,0.4,482.8,0.4C313,0.4,175.3,138.2,175.3,307.9c0,8.6,0.4,17.2,1.1,25.8c3.8,46.7,18.1,90.5,40.7,128.9
		c53.3,91.4,152.4,152.9,265.9,152.9c164.8,0,299.3-129.5,307.1-292.3C790.1,318.2,790.3,313.1,790.3,307.9z"/>
	<path id="SVGID_x5F_1_x5F_" fill="none" d="M692.3,454.8c-77.7,111-229.8,142.7-345.8,69.7c-79.8-50.3-122.5-137.4-119.5-225.3
		c1.3-36.9,10.6-74.1,28.4-108.7c3.2-6.3,6.8-12.6,10.6-18.6C341.4,52.4,499.4,16.3,618.8,91.6c65.9,41.4,106.4,108.1,116.9,179.5
		c8.6,58.1-2.9,119.5-36.7,173.2C696.9,447.9,694.6,451.3,692.3,454.8z"/>
	<text>	<textPath  xlink:href="#SVGID_x5F_1_x5F_" startOffset="61.6699%">
<tspan  stroke="#FFFFFF" stroke-width="0.9669" stroke-miterlimit="10" font-family="'Desdemona'" font-size="35.7737" letter-spacing="169">KAR - GAROO</tspan>	</textPath>
</text>
	<path id="SVGID_x5F_2_x5F_" fill="none" d="M700.4,486.9c2.8-3.6,5.6-7.2,8.3-10.9c41.6-56.1,59.4-122.5,54.9-187.1
		C758.1,209.7,719.3,133,650.5,82c-124.8-92.8-301.2-66.6-394,58.2c-4.7,6.3-9.2,12.9-13.2,19.5c-22.5,36.5-35.9,76.5-40.4,116.9
		c-10.7,96.3,28.7,195.5,112.1,257.5C436.1,624.1,605.7,602.1,700.4,486.9z"/>
	<text>	<textPath  xlink:href="#SVGID_x5F_2_x5F_" startOffset="-357.8849%">
<tspan  stroke="#FFFFFF" stroke-width="1.0645" stroke-miterlimit="10" font-family="'Desdemona'" font-size="39.3876" letter-spacing="169">Comparte tu auto</tspan>	</textPath>
</text>
</g>
<g id="res1">
	<path fill="none" stroke="#FFFFFF" stroke-width="3" stroke-miterlimit="10" d="M701.1,457.4c1-1.6,2.1-3.3,3.1-4.9
		c23.4-38.2,37.7-83,40-131c0-4.5,0.2-9,0.2-13.5c0-67-23.5-128.4-62.6-175.6c-4.5-5.5-9.3-10.7-14.2-15.8c-3.1-3.2-6.3-6.3-9.6-9.4
		"/>
	<path fill="none" stroke="#FFFFFF" stroke-width="3" stroke-miterlimit="10" d="M324.5,92.6C261.8,142.1,221.3,220.1,221.3,308
		c0,7.6,0.3,15.1,0.9,22.7c3.3,41.1,15.4,79.6,34.6,113.4c6.8,12.1,14.5,23.5,22.9,34.3c5.6,7.2,11.6,14.1,17.9,20.6"/>
	<path fill="none" stroke="#353531" stroke-width="3.3195" stroke-miterlimit="10" d="M634.5,178.4c-1.7-2-3.4-3.9-5.2-5.8
		c-3-3.3-6.1-6.4-9.4-9.5c-35.8-33.9-84.1-54.7-137.2-54.7c-109.2,0-197.9,87.8-199.5,196.5c0,1,0,2,0,3c0,5.6,0.2,11.2,0.7,16.8"/>
	<path fill="none" stroke="#353531" stroke-width="3.3195" stroke-miterlimit="10" d="M310.4,408.4c2.1,3.6,4.3,7.2,6.6,10.6
		c35.8,53.4,96.7,88.6,165.9,88.6c106.9,0,194.2-84,199.3-189.6c0-3.3,0.1-6.7,0.1-10c0-2.3,0-4.6-0.1-6.9c-0.2-5.4-0.6-10.7-1.2-16
		"/>
</g>
</svg>
