<?xml version="1.0" encoding="utf-8"?>
<!-- Generator: Adobe Illustrator 18.1.1, SVG Export Plug-In . SVG Version: 6.00 Build 0)  -->
<svg version="1.1" id="Capa_1" xmlns="http://www.w3.org/2000/svg" xmlns:xlink="http://www.w3.org/1999/xlink" x="0px" y="0px"
	 viewBox="0 0 300 150" enable-background="new 0 0 300 150" xml:space="preserve">
<path fill="#4D73FF" stroke="#1D1D1B" stroke-width="1.0446" stroke-miterlimit="10" d="M208.9,116.5H85.3c-5.1,0-9.2-4.1-9.2-9.2
	V29.4c0-2.8,2.2-5,5-5h130.1c4.6,0,8.3,3.7,8.3,8.3V106C219.4,111.8,214.7,116.5,208.9,116.5z"/>
<path fill="#EDF0F9" stroke="#1D1D1B" stroke-miterlimit="10" d="M217.1,118.3H77c-0.5,0-0.9-0.4-0.9-0.9V33.7h143.1v82.5
	C219.2,117.4,218.3,118.3,217.1,118.3z"/>
<path fill="#5BBDF4" stroke="#1D1D1B" stroke-miterlimit="10" d="M118.9,81.3H94.2c-4.5,0-8.2-3.7-8.2-8.2V50.8
	c0-4.3,3.5-7.8,7.8-7.8h25.8c3.3,0,6,2.7,6,6v25.6C125.5,78.3,122.6,81.3,118.9,81.3z"/>
<line fill="none" stroke="#4D73FF" stroke-width="3" stroke-miterlimit="10" x1="135.9" y1="48.8" x2="213.6" y2="48.8"/>
<line fill="none" stroke="#4D73FF" stroke-width="3" stroke-miterlimit="10" x1="135.9" y1="59.8" x2="213.6" y2="59.8"/>
<line fill="none" stroke="#4D73FF" stroke-width="3" stroke-miterlimit="10" x1="135.9" y1="72.8" x2="213.6" y2="72.8"/>
<line fill="none" stroke="#4D73FF" stroke-width="3.8399" stroke-miterlimit="10" x1="86.2" y1="90.8" x2="213.6" y2="90.8"/>
<line fill="none" stroke="#4D73FF" stroke-width="3.8399" stroke-miterlimit="10" x1="86.2" y1="99.8" x2="213.6" y2="99.8"/>
<path fill="none" stroke="#1D1D1B" stroke-miterlimit="10" d="M214,88.8"/>
<path fill="none" stroke="#1D1D1B" stroke-miterlimit="10" d="M86.1,88.8"/>
<ellipse fill="#F9A541" stroke="#1D1D1B" stroke-width="1.1198" stroke-miterlimit="10" cx="106.6" cy="59.3" rx="8.7" ry="8.9"/>
<path fill="#F99135" stroke="#1D1D1B" stroke-width="1.1198" stroke-miterlimit="10" d="M115.8,66.3l-9.6,9.2l-9.4-9.2
	c-1.7,0-3.2,3.4-3.2,7.5v0c0,4.1,1.4,7.5,3.2,7.5h19c1.7,0,3.2-3.4,3.2-7.5v0C118.9,69.6,117.5,66.3,115.8,66.3z"/>
<text transform="matrix(1.0906 0 0 1 104.3301 80.445)" font-family="'Phosphate-Inline'" font-size="6.4398">K</text>
<path fill="#078E27" stroke="#12D637" stroke-miterlimit="10" d="M209.6,114.8h-22.3c-1.8,0-3.3-1.5-3.3-3.3v0
	c0-1.8,1.5-3.3,3.3-3.3h22.3c1.8,0,3.3,1.5,3.3,3.3v0C212.9,113.3,211.4,114.8,209.6,114.8z"/>
<text transform="matrix(0.9395 0 0 1 191.7703 113.9993)" font-family="'Phosphate-Inline'" font-size="6.7908">Join</text>
</svg>
