<?xml version="1.0" encoding="utf-8"?>
<!-- Generator: Adobe Illustrator 18.1.1, SVG Export Plug-In . SVG Version: 6.00 Build 0)  -->
<svg version="1.1" id="Capa_1" xmlns="http://www.w3.org/2000/svg" xmlns:xlink="http://www.w3.org/1999/xlink" x="0px" y="0px"
	 viewBox="0 0 300 150" enable-background="new 0 0 300 150" xml:space="preserve">
<rect x="46.2" display="none" fill="#E27A32" width="207.7" height="150"/>
<circle fill="#FCAA32" cx="149.4" cy="75" r="58.2"/>
<g id="Carro">
	<g>
		<circle fill="#324D5B" cx="109.6" cy="83.1" r="6.9"/>
		<circle fill="#324D5B" cx="183.8" cy="82.6" r="6.8"/>
	</g>
	<g>
		<ellipse fill="#B5BCC0" cx="109.5" cy="82.6" rx="5.1" ry="4.9"/>
		<circle fill="#B5BCC0" cx="183.6" cy="82.2" r="5.4"/>
	</g>
	<path d="M97.7,76.6c0,0-3.9-6.9,8.3-9.4l1.6-0.6c0,0,0.3-2.5,11.3-2.7h28.5l7.1-7.7c0,0,11-4.1,19.6-0.3c0,0,5.6,0.9,14.7,11
		c0,0,16.4,12.6,14.3,14.5c0,0,2.3,1.5-13.8,2.5l-11.9,1l-4.2,0c0,0-2-0.1-2.3-1c-0.3-0.8-72.5,0.4-72.5,0.4S96.7,77.4,97.7,76.6z"
		/>
	<path fill="#F9F9F9" d="M116.2,79.4c0,0-11.6-1-10.4,1.6l40,2.9l1.1,0.6l-44.4-0.8c0,0-2.9-5.4,2.8-5.9
		C111.1,77.3,116.2,79.4,116.2,79.4z"/>
	<path fill="#F9F9F9" d="M203,82.1l-26,0.4c0,0-4.4-2.6,10.1-2.4c0,0-5.5-2.1-12.7-0.6c0,0-3.5,1.7-2.3,5.2c0.1,0.2,2.7,0.3,3.4,0.4
		c0.1,0,0.3,0,0.4,0l7.7-0.7l18.9-1.6L203,82.1z"/>
	<path fill="#FCAA32" d="M151.5,63.4l4.8-5.8c0,0,12.7-1.8,15.3,0.2c2.6,2-1.1,8.4-1.1,8.4L151.5,63.4z"/>
	<g>
		<path fill="#BCB3B3" d="M97.7,76.5c0.4-1,1-1.8,1.8-2.5c0.7-0.7,1.6-1.3,2.6-1.8c0.9-0.5,2-0.8,3-0.9c0.5-0.1,1-0.2,1.6-0.2
			c0.5,0,1-0.1,1.6,0c2.1,0,4.2,0.4,6.1,1c0.5,0.2,1,0.3,1.5,0.5c0.5,0.2,1,0.3,1.5,0.5c1,0.4,1.9,0.8,2.9,1.2l0,0
			c2.6,0.9,5.2,1.8,7.8,2.7l3.9,1.4c1.3,0.4,2.6,0.9,3.9,1.3c2.6,0.9,5.2,1.7,7.8,2.5c1.3,0.4,2.6,0.8,4,1.1c0.7,0.2,1.3,0.3,2,0.4
			c0.7,0.1,1.4,0.2,2,0.1c-0.7,0.1-1.4,0.1-2,0c-0.7-0.1-1.4-0.2-2-0.3c-1.3-0.3-2.7-0.6-4-0.9c-2.7-0.7-5.3-1.5-7.9-2.3
			c-1.3-0.4-2.6-0.9-3.9-1.3l-3.9-1.3c-2.6-0.9-5.2-1.8-7.8-2.7l0,0l0,0c-0.9-0.4-1.9-0.8-2.8-1.2c-0.5-0.2-1-0.4-1.4-0.5
			c-0.5-0.2-1-0.3-1.5-0.5c-1-0.3-2-0.5-3-0.7c-1-0.2-2-0.3-3-0.4c-0.5,0-1,0-1.5,0c-0.5,0-1,0.1-1.5,0.1c-1,0.2-2,0.4-2.9,0.8
			c-0.9,0.4-1.8,1-2.6,1.6C98.8,74.7,98.1,75.6,97.7,76.5z"/>
		<path fill="#BCB3B3" d="M97.1,73.7c0,0,0.1-0.3,0.3-0.8c0.2-0.5,0.6-1.3,1.3-2.1c0.7-0.8,1.6-1.8,2.9-2.5c1.3-0.7,3-1.3,4.8-1.4
			c1.9-0.2,3.9,0,5.9,0.4c2.1,0.4,4.2,1.1,6.4,1.9c4.3,1.6,8.7,3.9,13,6.1c4.3,2.3,8.7,4.5,13,5.9c2.2,0.7,4.3,1.2,6.4,1.5
			c1,0.1,2,0.2,3,0.2c1,0,1.9,0.1,2.9,0.1c7.3,0.3,12.2,0.5,12.2,0.5s-4.9-0.1-12.2-0.2c-0.9,0-1.9,0-2.9-0.1c-1,0-2,0-3.1-0.1
			c-2.1-0.2-4.3-0.7-6.5-1.4c-4.4-1.4-8.8-3.6-13.2-5.8c-4.3-2.3-8.7-4.5-12.9-6.2c-2.1-0.8-4.2-1.5-6.3-2c-2-0.4-4-0.7-5.8-0.5
			c-1.8,0.1-3.4,0.6-4.7,1.3c-1.3,0.7-2.3,1.6-3,2.4c-0.7,0.8-1.1,1.5-1.4,2.1C97.2,73.4,97.1,73.7,97.1,73.7z"/>
		<path fill="#BCB3B3" d="M127.3,69.5c0,0-0.1-0.2,0.1-0.6c0.1-0.3,0.5-0.7,0.9-0.8c0.4-0.2,0.9-0.2,1.2-0.1
			c0.3,0.1,0.5,0.1,0.5,0.1s-0.2,0.1-0.5,0.2c-0.3,0.1-0.6,0.2-1,0.4c-0.3,0.1-0.6,0.3-0.9,0.4C127.4,69.3,127.3,69.5,127.3,69.5z"
			/>
		<path fill="#BCB3B3" d="M139.2,73.2c0,0-0.3-0.2-0.7-0.7c-0.2-0.2-0.4-0.5-0.4-1c0-0.2,0-0.5,0.1-0.7c0.1-0.2,0.2-0.4,0.4-0.6
			c0.7-0.6,1.5-0.7,2.1-0.7c0.6,0,1,0.1,1,0.1s-0.1,0-0.3,0.1c-0.2,0-0.4,0.1-0.7,0.2c-0.5,0.2-1.2,0.4-1.7,0.8
			c-0.1,0.1-0.2,0.2-0.2,0.3c0,0.1-0.1,0.2-0.1,0.4c0,0.3,0.1,0.6,0.2,0.8C139,72.9,139.2,73.2,139.2,73.2z"/>
		<path fill="#BCB3B3" d="M131.5,64.3c3.1,0.3,6.3,0.7,9.4,1.1c3.1,0.4,6.3,0.9,9.4,1.5c3.1,0.6,6.2,1.2,9.3,2
			c1.5,0.4,3.1,0.8,4.6,1.3c0.8,0.3,1.5,0.6,2.2,0.9c0.7,0.4,1.5,0.7,2.1,1.3l-0.4,0c3-2,6.3-3.6,9.7-4.7c1.7-0.6,3.5-1,5.3-1.2
			c0.5,0,0.9-0.1,1.4-0.1c0.5,0,0.9,0,1.4,0.1c0.4,0,0.9,0.1,1.3,0.3c0.4,0.1,0.9,0.3,1.3,0.5c-0.4-0.2-0.8-0.3-1.3-0.4
			c-0.4-0.1-0.9-0.2-1.3-0.2c-0.4,0-0.9,0-1.3,0c-0.4,0-0.9,0.1-1.3,0.1c-1.8,0.2-3.5,0.7-5.2,1.3c-1.7,0.6-3.3,1.4-4.9,2.2
			c-1.6,0.8-3.1,1.7-4.6,2.7l-0.2,0.1l-0.2-0.2c-0.5-0.5-1.2-0.9-1.9-1.2c-0.7-0.3-1.4-0.6-2.2-0.9c-1.5-0.5-3-0.9-4.5-1.3
			c-3.1-0.8-6.2-1.4-9.3-2c-3.1-0.6-6.2-1.2-9.3-1.7C137.7,65.3,134.6,64.8,131.5,64.3z"/>
	</g>
	<path fill="#282828" d="M154.6,56.2c0,0,11.7-3.7,17-1c0,0,4.7,1.1,8.7,3.9c4,2.8-3.8,0-3.8,0S165.9,53.5,154.6,56.2z"/>
</g>
</svg>
