<?xml version="1.0" encoding="utf-8"?>
<!-- Generator: Adobe Illustrator 18.1.1, SVG Export Plug-In . SVG Version: 6.00 Build 0)  -->
<svg version="1.1" id="Capa_1" xmlns="http://www.w3.org/2000/svg" xmlns:xlink="http://www.w3.org/1999/xlink" x="0px" y="0px"
	 viewBox="0 0 859 600" enable-background="new 0 0 859 600" xml:space="preserve">
<g id="Multicolor">
	<g>
		<polygon fill="#4AC3AF" points="350.2,169.9 350.2,338.5 438.6,169.9 		"/>
		<polygon fill="#21B2D1" points="350.2,385.4 350.2,388.1 509.5,388.1 395,299.7 		"/>
		<polygon fill="#FBE158" points="463.1,169.9 402.6,285 524.8,378.8 524.8,169.9 		"/>
		<polygon fill="#F0F1F1" points="402.6,285 463.1,169.9 438.6,169.9 350.2,338.5 350.2,385.4 395,299.7 509.5,388.1 524.8,388.1 
			524.8,378.8 		"/>
		<path fill="#DF2C2C" d="M508.4,232.6c0,19.6-35.5,85.1-35.5,85.1s-35.5-65.5-35.5-85.1s15.8-35.5,35.5-35.5
			C492.6,197.2,508.4,213,508.4,232.6z"/>
		<circle fill="#FFFFFF" cx="473" cy="232.6" r="15.8"/>
	</g>
</g>
</svg>
