<?xml version="1.0" encoding="utf-8"?>
<!-- Generator: Adobe Illustrator 18.1.1, SVG Export Plug-In . SVG Version: 6.00 Build 0)  -->
<svg version="1.1" id="Capa_1" xmlns="http://www.w3.org/2000/svg" xmlns:xlink="http://www.w3.org/1999/xlink" x="0px" y="0px"
	 viewBox="0 0 300 150" enable-background="new 0 0 300 150" xml:space="preserve">
<rect x="42.6" y="-0.2" fill="#FFFFFF" width="208" height="150.2"/>
<path fill="#FCAA32" d="M152.9,16.9c30.9,0,55.9,25,55.9,55.9s-25,55.9-55.9,55.9S97,103.7,97,72.8S122,16.9,152.9,16.9z"/>
<path fill="#324D5B" d="M173.7,74.8c-4.9,0-8.9,4-8.9,8.9s4,8.9,8.9,8.9c4.9,0,8.9-4,8.9-8.9S178.6,74.8,173.7,74.8z M128.1,74.8
	c-4.9,0-8.9,4-8.9,8.9s4,8.9,8.9,8.9c4.9,0,8.9-4,8.9-8.9S133,74.8,128.1,74.8z"/>
<path fill="#B5BCC0" d="M173.7,78.8c-2.7,0-5,2.2-5,5s2.2,5,5,5s5-2.2,5-5S176.5,78.8,173.7,78.8z M128.1,78.8c-2.7,0-5,2.2-5,5
	s2.2,5,5,5s5-2.2,5-5S130.8,78.8,128.1,78.8z"/>
<path fill="#E2574C" d="M189.6,84.3L189.6,84.3c0-8.9-7-17.1-15.6-17.4c-5,0-15.4,0-15.4,0s-1.1-0.5-1.8,2.3V72c0,0.2,0,0.3,0,0.5
	c0.1,0.6,0.6,1,1.3,1.3c1.7,0.6,2.7,1.8,2.7,3.5c0,1.1-0.3,2.2-1.1,3c-0.8,0.8-1.8,1.3-2.9,1.3l-0.1,0.1h-5.5l0,0
	c-5.6,0-10.1-4.2-10.1-9.5l3.5-14.7c0.1-0.4,0-0.8-0.3-1.1s-0.6-0.5-1-0.5H136c0,0-1.1-0.5-3.2,5.7l-1.7,5.3
	c-1.6,0-6.2,0.3-10.3,4.4c-0.5,0.5-0.8,1.1-0.4,1.7l7.2,12.7l9.3,0.1h51.5c0.7,0,1.3-0.6,1.3-1.3C189.6,84.4,189.6,84.3,189.6,84.3z
	"/>
<path fill="#EE7269" d="M169.2,75.8h8.9c0.8,0,1.5-0.7,1.5-1.5s-0.6-1.5-1.5-1.5h-8.9c-0.8,0-1.5,0.7-1.5,1.5S168.4,75.8,169.2,75.8
	z M178.2,76.8h-8.9c-0.8,0-1.5,0.7-1.5,1.5s0.7,1.5,1.5,1.5h8.9c0.8,0,1.5-0.7,1.5-1.5C179.7,77.4,179,76.8,178.2,76.8z"/>
<path fill="#324D5B" d="M140.9,55.9v-2.8c0-1.3,0.8-2.2,2.2-2.2h4.5c0.7,0,1.3-0.8,1.3-1.5c0-0.7-0.6-1.5-1.3-1.5H143h0
	c-2.8,0-5,2.3-5,5v2.8L140.9,55.9L140.9,55.9L140.9,55.9z M130,54.9c2.7,0,5,2,5,4.5s-2.2,4.5-5,4.5V54.9z"/>
<path fill="#EFC75E" d="M134,69.8c1.6,0,3,1.3,3,3s-1.4,3-3,3s-3-1.3-3-3C131.1,71.2,132.4,69.8,134,69.8z"/>
<path fill="#D5D5D5" d="M156.4,79.7h-30.2c2.5,5.8,8.3,9.9,15.1,9.9C148.1,89.6,153.9,85.5,156.4,79.7z"/>
<g>
	<path fill="#CB4E44" d="M158.1,73.8c1.6,0.6,2.7,1.8,2.7,3.5c0,0.7-0.1,1.3-0.4,1.9c0.5-0.2,0.9-0.5,1.3-0.9c0.8-0.8,1.2-1.9,1.2-3
		c-0.1-1.8-1.1-2.9-2.7-3.5c-0.8-0.3-1.2-0.7-1.3-1.3c0-0.2,0-0.3,0-0.5v-2.9l0.1-0.3h-0.3c0,0-1.2-0.5-1.8,2.3V72
		c0,0.2,0,0.3,0,0.5C156.9,73.1,157.4,73.6,158.1,73.8z M189.6,84.2l0-0.4h-50.8l-9.3-0.1l-7.2-12.7c-0.2-0.3-0.2-0.7-0.1-1
		c-0.5,0.4-1,0.8-1.5,1.3c-0.5,0.5-0.8,1.1-0.4,1.7l7.2,12.7l9.3,0.1h51.5c0.7,0,1.3-0.6,1.3-1.3l0-0.1
		C189.6,84.3,189.6,84.2,189.6,84.2z"/>
</g>
<path fill="#324D5B" d="M157.4,58.9h13.9c2.5,0,4.5,2,4.5,4.5s-2,4.5-4.5,4.5h-13.9c-2.5,0-4.5-2-4.5-4.5S154.9,58.9,157.4,58.9z"/>
<g>
	<path fill="#D1645C" d="M178.2,78.8h-8.9c-0.6,0-1.2-0.4-1.4-1c-0.1,0.2-0.1,0.3-0.1,0.5c0,0.8,0.6,1.5,1.5,1.5h8.9
		c0.8,0,1.5-0.7,1.5-1.5c0-0.2,0-0.3-0.1-0.5C179.4,78.3,178.9,78.8,178.2,78.8z M178.2,74.8h-8.9c-0.6,0-1.2-0.4-1.4-1
		c-0.1,0.2-0.1,0.3-0.1,0.5c0,0.8,0.6,1.5,1.5,1.5h8.9c0.8,0,1.5-0.7,1.5-1.5c0-0.2,0-0.3-0.1-0.5C179.4,74.4,178.9,74.8,178.2,74.8
		z"/>
</g>
<path fill="#2D4552" d="M132,55.3c-0.6-0.2-1.3-0.3-2-0.3v9c0.7,0,1.4-0.1,2-0.3C132,63.5,132,55.3,132,55.3z"/>
<path fill="#CB4E44" d="M134,69.8c1.6,0,3,1.3,3,3s-1.4,3-3,3s-3-1.3-3-3C131.1,71.2,132.4,69.8,134,69.8 M134,68.8
	c-2.2,0-4,1.8-4,4s1.8,4,4,4s4-1.8,4-4S136.2,68.8,134,68.8z"/>
<path fill="#2B424D" d="M171.2,64.8h-13.9c-2,0-3.6-1.2-4.2-3c-0.2,0.5-0.3,1-0.3,1.5c0,2.5,2,4.5,4.5,4.5h13.9c2.5,0,4.5-2,4.5-4.5
	c0-0.5-0.1-1-0.3-1.5C174.8,63.6,173.2,64.8,171.2,64.8z"/>
</svg>
