<?xml version="1.0" encoding="utf-8"?>
<!-- Generator: Adobe Illustrator 18.1.1, SVG Export Plug-In . SVG Version: 6.00 Build 0)  -->
<svg version="1.1" id="Capa_1" xmlns="http://www.w3.org/2000/svg" xmlns:xlink="http://www.w3.org/1999/xlink" x="0px" y="0px"
	 viewBox="0 0 300 150" enable-background="new 0 0 300 150" xml:space="preserve">
<path fill="none" stroke="#D8A932" stroke-miterlimit="10" d="M221.5,13.9H98c-6.6,0-12,5.4-12,12v93.6c0,6.6,5.4,12,12,12h123.5
	c6.6,0,12-5.4,12-12V25.9C233.5,19.3,228.1,13.9,221.5,13.9z"/>
<circle fill="#1D1D1B" stroke="#FFFFFF" stroke-miterlimit="10" cx="120.7" cy="40.5" r="7.6"/>
<path fill="#1D1D1B" stroke="#FFFFFF" stroke-miterlimit="10" d="M117.3,59l11.6,11.6c0.3,0.3,0.8,0.5,1.3,0.5h0.6l19.8,0.3
	c1,0,1.6-1.6,1.6-2.6v-1.3c0-1-0.6-0.8-1.6-0.8L132.4,67c-1,0-2-1.6-2.1-2.5l-0.7-7.1l5.2,7.7c0.3,0.5,0.9,0.8,1.5,0.8l9.5,0.3h11.3
	c1,0,1.9-0.9,1.8-1.9l-0.1-1.3c-0.1-1-0.9-1.7-1.8-1.7l-17.1,0.2c-0.6,0-1.1-0.2-1.5-0.7l-8.2-10.4c-0.3-0.4-0.9-0.7-1.4-0.7
	l-14.3-0.2c-1,0-1.9,0.8-1.9,1.8v67.5c0,1,0.8,1.8,1.8,1.8h2.7c1,0,1.8-0.8,1.8-1.8V92.4c0-1,0.8-1.8,1.8-1.8h2.4
	c1,0,1.8,0.8,1.8,1.8v26c0,1,0.8,1.8,1.8,1.8h2.1c1,0,1.8-0.8,1.8-1.8l0.5-36.1L131,71.6"/>
<circle fill="#1D1D1B" stroke="#FFFFFF" stroke-miterlimit="10" cx="199.2" cy="40.5" r="7.6"/>
<path fill="#1D1D1B" stroke="#FFFFFF" stroke-miterlimit="10" d="M202.6,59l-11.6,11.6c-0.3,0.3-0.8,0.5-1.3,0.5h-0.6l-19.8,0.3
	c-1,0-1.6-1.6-1.6-2.6v-1.3c0-1,0.6-0.8,1.6-0.8l18.1,0.3c1,0,2-1.6,2.1-2.5l0.7-7.1l-5.2,7.7c-0.3,0.5-0.9,0.8-1.5,0.8l-9.5,0.3
	h-11.3c-1,0-1.9-0.9-1.8-1.9l0.1-1.3c0.1-1,0.9-1.7,1.8-1.7l17.1,0.2c0.6,0,1.1-0.2,1.5-0.7l8.2-10.4c0.3-0.4,0.9-0.7,1.4-0.7
	l14.3-0.2c1,0,1.9,0.8,1.9,1.8v67.5c0,1-0.8,1.8-1.8,1.8h-2.7c-1,0-1.8-0.8-1.8-1.8V92.4c0-1-0.8-1.8-1.8-1.8h-2.4
	c-1,0-1.8,0.8-1.8,1.8v26c0,1-0.8,1.8-1.8,1.8h-2.1c-1,0-1.8-0.8-1.8-1.8l-0.5-36.1l0.3-10.7"/>
<g>
	<g>
		<path fill="#D8A932" d="M177.2,39.8c-0.2-0.2-0.5-0.4-0.8-0.4h-3.8c-0.9-2.5-2.2-4.9-3.5-5.8c-4.8-3.2-17.6-3.2-22.4,0
			c-1.4,0.9-2.6,3.3-3.6,5.8h-3.8c-0.3,0-0.6,0.1-0.8,0.4c-0.2,0.2-0.3,0.5-0.2,0.8l0.6,2.7c0.1,0.5,0.5,0.8,1,0.8h1.1
			c-1.1,1.3-1.6,2.8-1.6,4.4c0,2,0.7,3.7,2.1,5c0,0,0,0,0,0v3.8c0,0.8,0.7,1.5,1.5,1.5h3.5c0.8,0,1.5-0.7,1.5-1.5v-1.5h19.6v1.5
			c0,0.8,0.7,1.5,1.5,1.5h3.5c0.8,0,1.5-0.7,1.5-1.5v-3.7c1.4-1.3,2.1-3.1,2.1-4.9c0-1.6-0.5-3.3-1.7-4.6h1.2c0.5,0,0.9-0.3,1-0.8
			l0.6-2.7C177.5,40.3,177.4,40,177.2,39.8z M148.4,36.1c3.8-2.5,15.2-2.5,19.1,0c0.7,0.5,1.7,2.5,2.6,4.9h-24.2
			C146.7,38.6,147.7,36.6,148.4,36.1z M143.9,48.9c0-1.6,1.3-3,3-3c1.6,0,3,1.3,3,3c0,1.6-1.3,3-3,3
			C145.3,51.9,143.9,50.5,143.9,48.9z M169,51.9c-1.6,0-3-1.3-3-3s1.3-3,3-3c1.6,0,3,1.3,3,3S170.7,51.9,169,51.9z"/>
	</g>
</g>
</svg>
