<?xml version="1.0" encoding="utf-8"?>
<!-- Generator: Adobe Illustrator 18.1.1, SVG Export Plug-In . SVG Version: 6.00 Build 0)  -->
<svg version="1.1" id="Capa_1" xmlns="http://www.w3.org/2000/svg" xmlns:xlink="http://www.w3.org/1999/xlink" x="0px" y="0px"
	 viewBox="0 0 300 150" enable-background="new 0 0 300 150" xml:space="preserve">
<rect x="46.2" display="none" fill="#1D71B8" width="207.7" height="150"/>
<circle fill="#FCAA32" cx="149.4" cy="75" r="58.2"/>
<g id="_x36_z4Ahw.tif" display="none">
	
		<image display="inline" overflow="visible" width="259" height="194" id="Layer_0_1_" xlink:href="FEAB12C90D8E81E7.png"  transform="matrix(0.5747 0 0 0.5747 71.0723 12.2511)">
	</image>
</g>
<g>
	<g>
		<circle fill="#324D5B" cx="130.3" cy="77.1" r="8.3"/>
		<circle fill="#324D5B" cx="185.2" cy="77.5" r="8.3"/>
		<g>
			<ellipse fill="#B5BCC0" cx="130" cy="77.1" rx="5.2" ry="5"/>
			<ellipse fill="#B5BCC0" cx="185.3" cy="79.2" rx="5.2" ry="5"/>
		</g>
	</g>
	<g>
		<path fill="#FAE600" d="M107.2,68.7l-0.2-4.2l1.5-0.5l-0.2-1.2c0,0,4.3-4.2,25.5-1.7c0,0-3.9-5.3,14.9-8.5c0,0,28.8,0.3,30.5,6
			c0,0,5.7,0.7,14.3,10.4c0,0,10.1,6.9,4.9,10.4c0,0-10.1,4-32.6,2.2l-23.8-0.3c-1.6,0-3-1-3.6-2.5l-2-5.1c-0.5-1.4-1.8-2.3-3.2-2.4
			c-3.1-0.2-8.6,0.4-11.6,6.6L122,84l-23.5,0.2c0,0-0.5-5.7,4.9-5.7c0,0-4.7-8.2-2.2-8.4C101.2,70.1,104.4,67.2,107.2,68.7z"/>
		<path fill="#FAE600" d="M111.4,61.2c0,0,0-2.5,0.7-2.4s7.2,1.2,7.2,1.2L111.4,61.2z"/>
	</g>
	<g>
		<path fill="#FFFFFF" stroke="#0A0A09" stroke-width="1.026" stroke-miterlimit="10" d="M143.2,65.6c0,0,21.3,4.8,17.7,11.4
			l14.8-0.1c0,0,1.4-11.1,8.9-10.4l-12.4-0.7c0,0,0.8,2.7-2.7,2.7c0,0-2.8-0.4-3.3-3.1L141.3,65L143.2,65.6z"/>
		<text transform="matrix(1 -2.827596e-03 2.827596e-03 1 163.0545 73.303)" font-family="'MyriadPro-Regular'" font-size="3.7988">TAXY K</text>
	</g>
	<g>
		<polygon fill="#FCAA32" points="151.2,61.3 155,56.2 166.3,56.3 169.2,61.3 		"/>
		<path fill="#FCAA32" d="M169.1,56.6l3.2,4.8l8.1-0.1C180.4,61.3,176.7,55.9,169.1,56.6z"/>
		<path fill="#FCAA32" d="M136.1,59.3l0.9-1.6c0.2-0.3,0.4-0.5,0.7-0.5l5.9-1c2-0.3,3.9,1.3,3.9,3.3l0.1,1.3L137,60.8
			C136.2,60.8,135.8,60,136.1,59.3z"/>
	</g>
	<g>
		<path fill="#FFFFFF" d="M105.8,70.7l8.3,0.2c0,0,1.7,5.7,0.5,5.8s5.7-0.8,6.3,0.7s2.8,6.3-0.5,7.3c-3.3,1-21.2,0.2-21.2,0.2
			s-2.5-4.7,0.8-5.7c3.3-1,3.5-2.8,3.5-2.8L105.8,70.7z"/>
		<line fill="none" stroke="#000000" stroke-width="1.026" stroke-miterlimit="10" x1="106" y1="79.1" x2="110.7" y2="79.1"/>
		<line fill="none" stroke="#000000" stroke-width="1.026" stroke-miterlimit="10" x1="105.6" y1="76.9" x2="109.3" y2="76.7"/>
		<line fill="none" stroke="#000000" stroke-width="1.026" stroke-miterlimit="10" x1="104.6" y1="74.6" x2="113.3" y2="74.6"/>
		<line fill="none" stroke="#000000" stroke-width="1.026" stroke-miterlimit="10" x1="105.4" y1="73.1" x2="112.9" y2="72.9"/>
		<line fill="none" stroke="#000000" stroke-width="1.026" stroke-miterlimit="10" x1="106.3" y1="70.7" x2="113.1" y2="70.7"/>
		<line fill="none" stroke="#000000" stroke-width="1.026" stroke-miterlimit="10" x1="98.8" y1="81.4" x2="117.1" y2="81.4"/>
	</g>
	<g>
		<g>
			<line fill="none" stroke="#000000" stroke-width="1.026" stroke-miterlimit="10" x1="139.3" y1="76" x2="158.3" y2="76.2"/>
			<line fill="none" stroke="#000000" stroke-width="1.026" stroke-miterlimit="10" x1="139.3" y1="79.1" x2="158.3" y2="79.3"/>
			<line fill="none" stroke="#000000" stroke-width="1.026" stroke-miterlimit="10" x1="139.3" y1="81.2" x2="158.3" y2="81.3"/>
		</g>
		<g>
			<line fill="none" stroke="#000000" stroke-width="1.026" stroke-miterlimit="10" x1="180.3" y1="76" x2="199.4" y2="76.2"/>
			<line fill="none" stroke="#000000" stroke-width="1.026" stroke-miterlimit="10" x1="180.3" y1="79.1" x2="199.4" y2="79.3"/>
			<line fill="none" stroke="#000000" stroke-width="1.026" stroke-miterlimit="10" x1="180.3" y1="81.2" x2="199.4" y2="81.3"/>
		</g>
		<path fill="none" stroke="#D1C020" stroke-width="1.026" stroke-miterlimit="10" d="M107.1,67.2c0,0,55.1-0.8,52.6,6.5"/>
		<path fill="none" stroke="#D1C020" stroke-width="1.026" stroke-miterlimit="10" d="M176.2,74.9c0,0,5.5-15.9,22.2-2.7"/>
	</g>
</g>
</svg>
